<svg xmlns="http://www.w3.org/2000/svg" width="60" height="60" viewBox="0 0 60 60">
  <g id="Agrupar_142" data-name="Agrupar 142" transform="translate(-139 -2186)">
    <circle id="Elipse_1" data-name="Elipse 1" cx="30" cy="30" r="30" transform="translate(139 2186)" fill="#3db387"/>
    <g id="checklist" transform="translate(153 2200.875)">
      <path id="Caminho_96" data-name="Caminho 96" d="M2.756,29.887h14.33v-1.1H2.756A1.653,1.653,0,0,1,1.1,27.131V2.881A1.653,1.653,0,0,1,2.756,1.227h24.25a1.653,1.653,0,0,1,1.653,1.653V15.557h1.1V2.881A2.759,2.759,0,0,0,27.006.125H2.756A2.759,2.759,0,0,0,0,2.881v24.25A2.76,2.76,0,0,0,2.756,29.887Zm0,0" fill="#fff"/>
      <path id="Caminho_97" data-name="Caminho 97" d="M62.344,62.469h1.1v1.1h-1.1Zm0,0" transform="translate(-60.139 -60.139)" fill="#fff"/>
      <path id="Caminho_98" data-name="Caminho 98" d="M124.676,62.469h1.1v1.1h-1.1Zm0,0" transform="translate(-120.267 -60.139)" fill="#fff"/>
      <path id="Caminho_99" data-name="Caminho 99" d="M187.016,62.469h1.1v1.1h-1.1Zm0,0" transform="translate(-180.402 -60.139)" fill="#fff"/>
      <path id="Caminho_100" data-name="Caminho 100" d="M62.344,124.8H87.7v1.1H62.344Zm0,0" transform="translate(-60.139 -120.267)" fill="#fff"/>
      <path id="Caminho_101" data-name="Caminho 101" d="M67.563,191.707l-1.4,1.4a2.764,2.764,0,1,0,.779.779l1.4-1.4Zm-2.917,5.35a1.653,1.653,0,1,1,0-3.307,1.624,1.624,0,0,1,.708.165l-1.1,1.1.779.779,1.1-1.1a1.623,1.623,0,0,1,.165.708A1.653,1.653,0,0,1,64.646,197.057Zm0,0" transform="translate(-59.686 -184.807)" fill="#fff"/>
      <path id="Caminho_102" data-name="Caminho 102" d="M264.941,249.484h9.369v1.1h-9.369Zm0,0" transform="translate(-255.572 -240.541)" fill="#fff"/>
      <path id="Caminho_103" data-name="Caminho 103" d="M264.941,311.82H268.8v1.1h-3.858Zm0,0" transform="translate(-255.572 -300.672)" fill="#fff"/>
      <path id="Caminho_104" data-name="Caminho 104" d="M405.2,311.82h7.716v1.1H405.2Zm0,0" transform="translate(-390.873 -300.672)" fill="#fff"/>
      <path id="Caminho_105" data-name="Caminho 105" d="M561.047,249.484h5.511v1.1h-5.511Zm0,0" transform="translate(-541.206 -240.541)" fill="#fff"/>
      <path id="Caminho_106" data-name="Caminho 106" d="M67.563,378.723l-1.4,1.4a2.764,2.764,0,1,0,.779.779l1.4-1.4Zm-2.917,5.35a1.654,1.654,0,0,1,0-3.307,1.628,1.628,0,0,1,.708.165l-1.1,1.1.779.779,1.1-1.1a1.623,1.623,0,0,1,.165.708A1.653,1.653,0,0,1,64.646,384.073Zm0,0" transform="translate(-59.686 -365.209)" fill="#fff"/>
      <path id="Caminho_107" data-name="Caminho 107" d="M264.941,436.492h9.369v1.1h-9.369Zm0,0" transform="translate(-255.572 -420.935)" fill="#fff"/>
      <path id="Caminho_108" data-name="Caminho 108" d="M264.941,498.836H268.8v1.1h-3.858Zm0,0" transform="translate(-255.572 -481.074)" fill="#fff"/>
      <path id="Caminho_109" data-name="Caminho 109" d="M405.2,498.836h4.409v1.1H405.2Zm0,0" transform="translate(-390.873 -481.074)" fill="#fff"/>
      <path id="Caminho_110" data-name="Caminho 110" d="M561.047,436.492h2.2v1.1h-2.2Zm0,0" transform="translate(-541.206 -420.935)" fill="#fff"/>
      <path id="Caminho_111" data-name="Caminho 111" d="M67.563,565.738l-1.4,1.4a2.764,2.764,0,1,0,.779.779l1.4-1.4Zm-2.917,5.35a1.653,1.653,0,0,1,0-3.307,1.622,1.622,0,0,1,.708.165l-1.1,1.1.779.779,1.1-1.1a1.625,1.625,0,0,1,.165.708A1.653,1.653,0,0,1,64.646,571.088Zm0,0" transform="translate(-59.686 -545.611)" fill="#fff"/>
      <path id="Caminho_112" data-name="Caminho 112" d="M264.941,623.512h7.165v1.1h-7.165Zm0,0" transform="translate(-255.572 -601.341)" fill="#fff"/>
      <path id="Caminho_113" data-name="Caminho 113" d="M264.941,685.852H268.8v1.1h-3.858Zm0,0" transform="translate(-255.572 -661.476)" fill="#fff"/>
      <path id="Caminho_114" data-name="Caminho 114" d="M405.2,685.852h2.2v1.1h-2.2Zm0,0" transform="translate(-390.873 -661.476)" fill="#fff"/>
      <path id="Caminho_115" data-name="Caminho 115" d="M506.978,484.2a8.267,8.267,0,1,0-8.267-8.267A8.267,8.267,0,0,0,506.978,484.2Zm0-15.432a7.165,7.165,0,1,1-7.165,7.165A7.165,7.165,0,0,1,506.978,468.766Zm0,0" transform="translate(-481.074 -451.005)" fill="#fff"/>
      <path id="Caminho_116" data-name="Caminho 116" d="M610.506,585.877l-.987.493,1.1,2.2a.55.55,0,0,0,.4.3.6.6,0,0,0,.086.007.552.552,0,0,0,.39-.162l6.613-6.614-.779-.779-6.073,6.073Zm0,0" transform="translate(-587.964 -560.646)" fill="#fff"/>
    </g>
  </g>
</svg>
