<svg xmlns="http://www.w3.org/2000/svg" width="60" height="60" viewBox="0 0 60 60">
  <g id="Agrupar_144" data-name="Agrupar 144" transform="translate(-139 -2368)">
    <circle id="Elipse_5" data-name="Elipse 5" cx="30" cy="30" r="30" transform="translate(139 2368)" fill="#3db387"/>
    <g id="innovation" transform="translate(155.562 2378.71)">
      <path id="Caminho_120" data-name="Caminho 120" d="M22.532,3.369A13.261,13.261,0,0,0,4.148,22.459a12.478,12.478,0,0,1,3.568,8.7v3.98a1.99,1.99,0,0,0,1.99,1.99h.73a3.317,3.317,0,0,0,6.5,0h.73a1.99,1.99,0,0,0,1.99-1.99v-3.98A12.337,12.337,0,0,1,23.185,22.5a13.249,13.249,0,0,0-.653-19.131ZM10.369,25.856a.663.663,0,1,1,.663.663A.663.663,0,0,1,10.369,25.856Zm7.96,7.3H9.043V31.826h9.287Zm-4.643,5.307a1.994,1.994,0,0,1-1.877-1.327h3.753A1.994,1.994,0,0,1,13.686,38.459Zm3.98-2.653H9.706a.663.663,0,0,1-.663-.663v-.663h9.287v.663A.663.663,0,0,1,17.666,35.806Zm4.57-14.233A13.64,13.64,0,0,0,18.345,30.5H17V24.1l1.9-2.374a2.036,2.036,0,1,0-.985-.893l-2.1,2.619a.664.664,0,0,0-.145.415V30.5H14.349v-1.99H13.023V30.5H11.7V27.724a1.99,1.99,0,1,0-1.327,0V30.5H9.027A13.819,13.819,0,0,0,5.1,21.536a11.94,11.94,0,1,1,17.135.037Zm-3.243-1.687a.663.663,0,1,1,.663.663A.663.663,0,0,1,18.993,19.886Zm0,0" transform="translate(0)" fill="#fff"/>
      <path id="Caminho_121" data-name="Caminho 121" d="M105.533,35.6v3.438a.663.663,0,0,0,.194.469l2.653,2.653.938-.938-2.459-2.459V35.6a1.99,1.99,0,1,0-1.327,0Zm.663-2.532a.663.663,0,1,1-.663.663A.663.663,0,0,1,106.2,33.073Zm0,0" transform="translate(-95.164 -29.107)" fill="#fff"/>
      <path id="Caminho_122" data-name="Caminho 122" d="M50.86,84.779V83.6a1.99,1.99,0,1,0-1.327,0v1.448a.663.663,0,0,0,.194.469l2.653,2.653.938-.938ZM50.2,81.073a.663.663,0,1,1-.663.663A.663.663,0,0,1,50.2,81.073Zm0,0" transform="translate(-43.807 -73.127)" fill="#fff"/>
      <path id="Caminho_123" data-name="Caminho 123" d="M35.988,170.678a1.954,1.954,0,0,0,.2-.853,1.99,1.99,0,1,0-1.99,1.99,1.954,1.954,0,0,0,.852-.2l1.138,1.137v2.379h1.327v-2.653a.663.663,0,0,0-.194-.469Zm-2.454-.853a.663.663,0,1,1,.663.663A.663.663,0,0,1,33.534,169.826Zm0,0" transform="translate(-29.134 -153.92)" fill="#fff"/>
      <path id="Caminho_124" data-name="Caminho 124" d="M152.207,45.806h1.327V44.7l1.858-2.476a.664.664,0,0,0,.132-.4v-1.99H154.2v1.769l-1.857,2.477a.662.662,0,0,0-.133.4Zm0,0" transform="translate(-139.184 -36.534)" fill="#fff"/>
      <path id="Caminho_125" data-name="Caminho 125" d="M138.206,175.836a1.986,1.986,0,0,0-.663,3.858v4.765h1.327v-4.765a1.986,1.986,0,0,0-.663-3.858Zm0,2.653a.663.663,0,1,1,.663-.663A.663.663,0,0,1,138.206,178.489Zm0,0" transform="translate(-124.52 -161.257)" fill="#fff"/>
      <path id="Caminho_126" data-name="Caminho 126" d="M225.534,129.826a1.959,1.959,0,0,0,.2.852L224.4,132.01a.665.665,0,0,0-.194.469v1.99h1.327v-1.715l1.138-1.137a1.953,1.953,0,0,0,.852.2,1.99,1.99,0,1,0-1.99-1.99Zm2.653,0a.663.663,0,1,1-.663-.663A.663.663,0,0,1,228.187,129.826Zm0,0" transform="translate(-205.214 -117.237)" fill="#fff"/>
      <path id="Caminho_127" data-name="Caminho 127" d="M179.976,77.594l.017.017,2.653-2.653a.663.663,0,0,0,.194-.469V71.836h-1.327v2.379l-2.459,2.459.017.018a1.966,1.966,0,0,0-.875-.212,1.99,1.99,0,1,0,1.99,1.99A1.966,1.966,0,0,0,179.976,77.594ZM178.2,79.133a.663.663,0,1,1,.663-.663A.663.663,0,0,1,178.2,79.133Zm0,0" transform="translate(-161.194 -65.88)" fill="#fff"/>
      <path id="Caminho_128" data-name="Caminho 128" d="M184.207,223.836h1.327v1.327h-1.327Zm0,0" transform="translate(-168.531 -205.277)" fill="#fff"/>
      <path id="Caminho_129" data-name="Caminho 129" d="M208.207,63.836h1.327v2.653h-1.327Zm0,0" transform="translate(-190.541 -58.544)" fill="#fff"/>
      <path id="Caminho_130" data-name="Caminho 130" d="M264.207,191.836h1.327v1.327h-1.327Zm0,0" transform="translate(-241.898 -175.93)" fill="#fff"/>
      <path id="Caminho_131" data-name="Caminho 131" d="M32.207,135.836h1.327v1.327H32.207Zm0,0" transform="translate(-29.134 -124.574)" fill="#fff"/>
      <path id="Caminho_132" data-name="Caminho 132" d="M120.207,239.836h1.327v2.653h-1.327Zm0,0" transform="translate(-109.838 -219.95)" fill="#fff"/>
      <path id="Caminho_133" data-name="Caminho 133" d="M104.207,199.836h1.327v1.327h-1.327Zm0,0" transform="translate(-95.164 -183.267)" fill="#fff"/>
    </g>
  </g>
</svg>
