<svg xmlns="http://www.w3.org/2000/svg" width="60" height="60" viewBox="0 0 60 60">
  <g id="Agrupar_146" data-name="Agrupar 146" transform="translate(-139 -2550)">
    <circle id="Elipse_7" data-name="Elipse 7" cx="30" cy="30" r="30" transform="translate(139 2550)" fill="#3db387"/>
    <g id="communications" transform="translate(151.427 2563.427)">
      <path id="Caminho_137" data-name="Caminho 137" d="M112,208h1.219v2.438H112Zm0,0" transform="translate(-103.466 -192.152)" fill="#fff"/>
      <path id="Caminho_138" data-name="Caminho 138" d="M232,432h1.219v1.219H232Zm0,0" transform="translate(-214.323 -399.084)" fill="#fff"/>
      <path id="Caminho_139" data-name="Caminho 139" d="M240,368h1.219v1.219H240Zm0,0" transform="translate(-221.713 -339.961)" fill="#fff"/>
      <path id="Caminho_140" data-name="Caminho 140" d="M144,209.219h4.876v2.438H150.1V208.61a.61.61,0,0,0-.61-.61H144.61a.61.61,0,0,0-.61.61Zm0,0" transform="translate(-133.028 -192.152)" fill="#fff"/>
      <path id="Caminho_141" data-name="Caminho 141" d="M240,240h3.048v1.219H240Zm0,0" transform="translate(-221.713 -221.713)" fill="#fff"/>
      <path id="Caminho_142" data-name="Caminho 142" d="M144.61,169.829h4.876a.61.61,0,0,0,.61-.61V168h-1.219v.61H144v.61A.61.61,0,0,0,144.61,169.829Zm0,0" transform="translate(-133.028 -155.199)" fill="#fff"/>
      <path id="Caminho_143" data-name="Caminho 143" d="M381.357,265.536V253.372a6.69,6.69,0,0,0-1.646-4.4l-.932-1.122-.939.778.94,1.135a5.485,5.485,0,0,1,1.358,3.612v12.164Zm0,0" transform="translate(-349.051 -228.963)" fill="#fff"/>
      <path id="Caminho_144" data-name="Caminho 144" d="M127.848,280.354h.61v-1.219a.609.609,0,0,0-.134-.381,5.106,5.106,0,0,1-.449-5.753l.5-.878a.61.61,0,0,0-.1-.732l-3.657-3.657a1.546,1.546,0,0,1,2.186-2.186l4.876,4.876.862-.862-1.041-1.042V263.9h-1.219v3.4l-1.576-1.576h.357v-1.219h-1.616a2.751,2.751,0,0,0-3.475,0h-2.224v1.219h1.363a2.771,2.771,0,0,0-.136,1.219h-1.228v1.219h1.655a2.756,2.756,0,0,0,.352.431l.788.788h-2.8V270.6h4.014l1.219,1.219h-2.8v1.219h2.316a6.424,6.424,0,0,0-.393,1.219h-4.361v1.219h4.238a6.3,6.3,0,0,0,1.116,3.657H115.048a1.829,1.829,0,0,1-1.829-1.829v-.61H112v.61a3.051,3.051,0,0,0,3.048,3.048Zm0,0" transform="translate(-103.466 -243.781)" fill="#fff"/>
      <path id="Caminho_145" data-name="Caminho 145" d="M2.438,12.191H5.3l3.5,2.336a.609.609,0,0,0,.946-.507V12.191h4.876a2.438,2.438,0,0,0,2.438-2.438V2.438A2.438,2.438,0,0,0,14.629,0H2.438A2.438,2.438,0,0,0,0,2.438V9.753A2.438,2.438,0,0,0,2.438,12.191Zm12.191-1.219H9.143a.61.61,0,0,0-.61.61v1.3L5.824,11.074a.614.614,0,0,0-.338-.1H2.438a1.219,1.219,0,0,1-1.2-.99L6.066,5.159l3.84,4.389a.61.61,0,0,0,.839.074l2.621-2.1,2.46,2.46A1.219,1.219,0,0,1,14.629,10.972ZM1.219,2.438A1.219,1.219,0,0,1,2.438,1.219H14.629a1.219,1.219,0,0,1,1.219,1.219V8.281L13.841,6.274a.609.609,0,0,0-.812-.045L10.437,8.3,6.554,3.865a.61.61,0,0,0-.438-.208.618.618,0,0,0-.451.179L1.219,8.281Zm0,0" fill="#fff"/>
      <path id="Caminho_146" data-name="Caminho 146" d="M121.829,35.657A1.829,1.829,0,1,0,120,33.829,1.829,1.829,0,0,0,121.829,35.657Zm0-2.438a.61.61,0,1,1-.61.61A.61.61,0,0,1,121.829,33.219Zm0,0" transform="translate(-110.857 -29.562)" fill="#fff"/>
      <path id="Caminho_147" data-name="Caminho 147" d="M258.287,39.924a1.829,1.829,0,0,0-1.829-1.829h-6.705V35.048A3.051,3.051,0,0,0,246.705,32H240v1.219h6.705a1.829,1.829,0,0,1,1.829,1.829v.61H240v1.219h8.534V38.1h-5.486a1.829,1.829,0,0,0-1.829,1.829V44.8a1.829,1.829,0,0,0,1.829,1.829h3.657v1.829a.609.609,0,0,0,1.041.431l2.26-2.26h6.453a1.829,1.829,0,0,0,1.829-1.829ZM257.067,44.8a.61.61,0,0,1-.61.61h-6.705a.61.61,0,0,0-.431.179l-1.4,1.4V46.02a.61.61,0,0,0-.61-.61h-4.267a.61.61,0,0,1-.61-.61V39.924a.61.61,0,0,1,.61-.61h13.41a.61.61,0,0,1,.61.61Zm0,0" transform="translate(-221.713 -29.562)" fill="#fff"/>
      <path id="Caminho_148" data-name="Caminho 148" d="M288,144h2.438v1.219H288Zm0,0" transform="translate(-266.056 -133.028)" fill="#fff"/>
      <path id="Caminho_149" data-name="Caminho 149" d="M336,144h8.534v1.219H336Zm0,0" transform="translate(-310.399 -133.028)" fill="#fff"/>
      <path id="Caminho_150" data-name="Caminho 150" d="M288,176h6.1v1.219H288Zm0,0" transform="translate(-266.056 -162.59)" fill="#fff"/>
      <path id="Caminho_151" data-name="Caminho 151" d="M384,176h1.219v1.219H384Zm0,0" transform="translate(-354.742 -162.59)" fill="#fff"/>
      <path id="Caminho_152" data-name="Caminho 152" d="M416,176h2.438v1.219H416Zm0,0" transform="translate(-384.303 -162.59)" fill="#fff"/>
      <path id="Caminho_153" data-name="Caminho 153" d="M34.438,242.438A2.438,2.438,0,0,0,32,244.876v6.1a2.438,2.438,0,0,0,2.438,2.438h9.753a2.438,2.438,0,0,0,2.438-2.438v-6.1a2.438,2.438,0,0,0-2.438-2.438H41.753v-1.829a.61.61,0,0,0-.948-.507l-3.5,2.336Zm3.386,1.117,2.709-1.806v1.3a.61.61,0,0,0,.61.61h3.048a1.219,1.219,0,0,1,1.219,1.219v6.1a1.219,1.219,0,0,1-1.219,1.219H34.438a1.219,1.219,0,0,1-1.219-1.219v-6.1a1.219,1.219,0,0,1,1.219-1.219h3.048A.614.614,0,0,0,37.824,243.555Zm0,0" transform="translate(-29.562 -221.713)" fill="#fff"/>
      <path id="Caminho_154" data-name="Caminho 154" d="M96.3,309.975a.611.611,0,0,0,.61,0l4.267-2.438a.61.61,0,0,0,0-1.058l-4.267-2.438a.61.61,0,0,0-.914.531v4.876A.61.61,0,0,0,96.3,309.975Zm.914-4.353,2.428,1.388L97.219,308.4Zm0,0" transform="translate(-88.685 -280.799)" fill="#fff"/>
      <path id="Caminho_155" data-name="Caminho 155" d="M296,240h1.219v1.219H296Zm0,0" transform="translate(-273.447 -221.713)" fill="#fff"/>
    </g>
  </g>
</svg>
