<svg xmlns="http://www.w3.org/2000/svg" width="133" height="133" viewBox="0 0 133 133">
  <g id="Agrupar_62" data-name="Agrupar 62" transform="translate(-754 -1407)">
    <circle id="Elipse_16" data-name="Elipse 16" cx="66.5" cy="66.5" r="66.5" transform="translate(754 1407)" fill="#5cc79f"/>
    <g id="thermometer" transform="translate(791.935 1445.021)">
      <path id="Caminho_44" data-name="Caminho 44" d="M420.206,127.279l-22.134,22.135a3.457,3.457,0,1,0,4.889,4.889l18.853-18.853a.9.9,0,1,0-1.274-1.274L401.687,153.03a1.656,1.656,0,1,1-2.342-2.342l22.136-22.135a1.655,1.655,0,1,1,2.341,2.341.9.9,0,0,0,0,1.274c1.317,1.318,3.621-2.541,1.274-4.889A3.461,3.461,0,0,0,420.206,127.279Zm0,0" transform="translate(-374.506 -120.379)" fill="#fff"/>
      <path id="Caminho_45" data-name="Caminho 45" d="M57.827,6.682l-7.02-7.02a5.742,5.742,0,0,0-8.125,0c-18.985,19.008-18.05,18-19.144,19.212-7.181,7.972-5.572,11.758-11.325,19.29a.9.9,0,0,0,1.432,1.094,34.948,34.948,0,0,0,2.812-4.3,8.234,8.234,0,0,0,6.078,6.08C16.271,44.49,13.556,48.349,9.3,52.339L5.151,48.19l5.427-5.427A.9.9,0,1,0,9.3,41.489L-.669,51.462a4.736,4.736,0,0,0,6.7,6.7L16,48.186C21.627,42.56,26.945,41,29.382,39.929a34.728,34.728,0,0,0,10.58-7.255L57.827,14.808A5.743,5.743,0,0,0,57.827,6.682ZM4.755,56.884A2.934,2.934,0,1,1,.605,52.735l3.272-3.272,4.149,4.149Zm51.8-43.35C37.9,32.167,38.558,31.578,37.41,32.612a32.995,32.995,0,0,1-10.58,6.413,6.463,6.463,0,0,1-8.365-8.366,33.56,33.56,0,0,1,5.154-9.1l1.473,1.473a.9.9,0,1,0,1.274-1.274l-1.58-1.579c.926-1.036,1.521-1.59,2.107-2.184l1.619,1.618a.9.9,0,0,0,1.273-1.273l-1.619-1.619,2.145-2.145L31.93,16.2A.9.9,0,0,0,33.2,14.925l-1.618-1.619,2.145-2.145,1.619,1.618a.9.9,0,1,0,1.274-1.274L35,9.888,37.15,7.742l1.619,1.619a.9.9,0,1,0,1.274-1.274L38.424,6.468l2.145-2.145,1.618,1.619a.9.9,0,0,0,1.274-1.274L41.842,3.05,43.955.937A3.942,3.942,0,0,1,49.243.673c.275.225-.085-.1,7.311,7.283A3.942,3.942,0,0,1,56.553,13.534Zm0,0" transform="translate(0)" fill="#fff"/>
    </g>
  </g>
</svg>
