<svg xmlns="http://www.w3.org/2000/svg" width="133" height="133" viewBox="0 0 133 133">
  <g id="Agrupar_60" data-name="Agrupar 60" transform="translate(-201 -1407)">
    <path id="Caminho_48" data-name="Caminho 48" d="M66.5,0A66.5,66.5,0,1,1,0,66.5,66.5,66.5,0,0,1,66.5,0Z" transform="translate(201 1407)" fill="#5cc79f"/>
    <g id="briefing" transform="translate(192.09 1442.794)">
      <g id="Agrupar_24" data-name="Agrupar 24" transform="translate(51.091 14.325)">
        <g id="Agrupar_23" data-name="Agrupar 23">
          <path id="Caminho_28" data-name="Caminho 28" d="M87.238,164.366H52.9V119.637a.907.907,0,0,0-1.813,0v45.031a1.513,1.513,0,0,0,1.511,1.511H87.238a.907.907,0,1,0,0-1.813Z" transform="translate(-51.091 -118.73)" fill="#fff"/>
        </g>
      </g>
      <g id="Agrupar_26" data-name="Agrupar 26" transform="translate(51.091)">
        <g id="Agrupar_25" data-name="Agrupar 25" transform="translate(0)">
          <path id="Caminho_29" data-name="Caminho 29" d="M100.28,8.2,92.573.275A.907.907,0,0,0,91.923,0H52.6a1.513,1.513,0,0,0-1.511,1.511V8.583a.907.907,0,1,0,1.813,0V1.814H91.54L98.724,9.2V59.961H93.585a.907.907,0,1,0,0,1.813h5.441a1.513,1.513,0,0,0,1.511-1.511V8.831A.906.906,0,0,0,100.28,8.2Z" transform="translate(-51.091)" fill="#fff"/>
        </g>
      </g>
      <g id="Agrupar_28" data-name="Agrupar 28" transform="translate(91.017 0)">
        <g id="Agrupar_27" data-name="Agrupar 27">
          <path id="Caminho_30" data-name="Caminho 30" d="M391.267,8.2,383.561.275A.907.907,0,0,0,382,.907V8.831a.907.907,0,0,0,.907.907h7.707a.907.907,0,0,0,.65-1.539Zm-7.45-.275V3.14l4.653,4.785h-4.653Z" transform="translate(-382.004 -0.001)" fill="#fff"/>
        </g>
      </g>
      <g id="Agrupar_30" data-name="Agrupar 30" transform="translate(56.653 4.814)">
        <g id="Agrupar_29" data-name="Agrupar 29">
          <path id="Caminho_31" data-name="Caminho 31" d="M120.546,39.9H98.7a1.513,1.513,0,0,0-1.511,1.511v5.011A1.513,1.513,0,0,0,98.7,47.932h21.846a1.513,1.513,0,0,0,1.511-1.511V41.41A1.513,1.513,0,0,0,120.546,39.9Zm-.3,6.22H99V41.712h21.242Z" transform="translate(-97.189 -39.899)" fill="#fff"/>
        </g>
      </g>
      <g id="Agrupar_32" data-name="Agrupar 32" transform="translate(57.725 17.408)">
        <g id="Agrupar_31" data-name="Agrupar 31" transform="translate(0)">
          <path id="Caminho_32" data-name="Caminho 32" d="M114.062,144.464a.907.907,0,0,0-1.27.173l-4.006,5.271-1.2-1.053a.907.907,0,1,0-1.194,1.365l1.934,1.692a.907.907,0,0,0,.6.224c.03,0,.061,0,.092,0a.907.907,0,0,0,.63-.354l4.594-6.044A.907.907,0,0,0,114.062,144.464Z" transform="translate(-106.079 -144.28)" fill="#fff"/>
        </g>
      </g>
      <g id="Agrupar_34" data-name="Agrupar 34" transform="translate(69.253 17.407)">
        <g id="Agrupar_33" data-name="Agrupar 33">
          <path id="Caminho_33" data-name="Caminho 33" d="M225.364,144.277H202.528a.907.907,0,1,0,0,1.813h22.836a.907.907,0,1,0,0-1.813Z" transform="translate(-201.621 -144.277)" fill="#fff"/>
        </g>
      </g>
      <g id="Agrupar_36" data-name="Agrupar 36" transform="translate(69.253 20.43)">
        <g id="Agrupar_35" data-name="Agrupar 35">
          <path id="Caminho_34" data-name="Caminho 34" d="M217.354,169.326H202.528a.907.907,0,0,0,0,1.813h14.826a.907.907,0,1,0,0-1.813Z" transform="translate(-201.621 -169.326)" fill="#fff"/>
        </g>
      </g>
      <g id="Agrupar_38" data-name="Agrupar 38" transform="translate(69.253 23.452)">
        <g id="Agrupar_37" data-name="Agrupar 37">
          <path id="Caminho_35" data-name="Caminho 35" d="M220.739,194.376H202.528a.907.907,0,0,0,0,1.813h18.211a.907.907,0,0,0,0-1.813Z" transform="translate(-201.621 -194.376)" fill="#fff"/>
        </g>
      </g>
      <g id="Agrupar_40" data-name="Agrupar 40" transform="translate(57.725 29.739)">
        <g id="Agrupar_39" data-name="Agrupar 39" transform="translate(0)">
          <path id="Caminho_36" data-name="Caminho 36" d="M114.062,246.667a.907.907,0,0,0-1.27.173l-4.006,5.271-1.2-1.053a.907.907,0,0,0-1.194,1.365l1.934,1.692a.907.907,0,0,0,.6.224c.03,0,.061,0,.092,0a.907.907,0,0,0,.63-.354l4.594-6.044A.907.907,0,0,0,114.062,246.667Z" transform="translate(-106.079 -246.482)" fill="#fff"/>
        </g>
      </g>
      <g id="Agrupar_42" data-name="Agrupar 42" transform="translate(69.253 29.739)">
        <g id="Agrupar_41" data-name="Agrupar 41">
          <path id="Caminho_37" data-name="Caminho 37" d="M225.364,246.481H202.528a.907.907,0,1,0,0,1.813h22.836a.907.907,0,1,0,0-1.813Z" transform="translate(-201.621 -246.481)" fill="#fff"/>
        </g>
      </g>
      <g id="Agrupar_44" data-name="Agrupar 44" transform="translate(69.253 32.761)">
        <g id="Agrupar_43" data-name="Agrupar 43">
          <path id="Caminho_38" data-name="Caminho 38" d="M217.354,271.53H202.528a.907.907,0,1,0,0,1.813h14.826a.907.907,0,1,0,0-1.813Z" transform="translate(-201.621 -271.53)" fill="#fff"/>
        </g>
      </g>
      <g id="Agrupar_46" data-name="Agrupar 46" transform="translate(69.253 35.783)">
        <g id="Agrupar_45" data-name="Agrupar 45">
          <path id="Caminho_39" data-name="Caminho 39" d="M220.739,296.579H202.528a.907.907,0,0,0,0,1.813h18.211a.907.907,0,0,0,0-1.813Z" transform="translate(-201.621 -296.579)" fill="#fff"/>
        </g>
      </g>
      <g id="Agrupar_48" data-name="Agrupar 48" transform="translate(69.253 42.07)">
        <g id="Agrupar_47" data-name="Agrupar 47">
          <path id="Caminho_40" data-name="Caminho 40" d="M225.364,348.685H202.528a.907.907,0,1,0,0,1.813h22.836a.907.907,0,1,0,0-1.813Z" transform="translate(-201.621 -348.685)" fill="#fff"/>
        </g>
      </g>
      <g id="Agrupar_50" data-name="Agrupar 50" transform="translate(69.253 45.092)">
        <g id="Agrupar_49" data-name="Agrupar 49">
          <path id="Caminho_41" data-name="Caminho 41" d="M217.354,373.734H202.528a.907.907,0,1,0,0,1.813h14.826a.907.907,0,1,0,0-1.813Z" transform="translate(-201.621 -373.734)" fill="#fff"/>
        </g>
      </g>
      <g id="Agrupar_52" data-name="Agrupar 52" transform="translate(69.253 48.114)">
        <g id="Agrupar_51" data-name="Agrupar 51">
          <path id="Caminho_42" data-name="Caminho 42" d="M220.739,398.783H202.528a.907.907,0,0,0,0,1.813h18.211a.907.907,0,0,0,0-1.813Z" transform="translate(-201.621 -398.783)" fill="#fff"/>
        </g>
      </g>
      <g id="Agrupar_54" data-name="Agrupar 54" transform="translate(57.725 42.07)">
        <g id="Agrupar_53" data-name="Agrupar 53">
          <path id="Caminho_43" data-name="Caminho 43" d="M112.424,348.685h-4.836a1.513,1.513,0,0,0-1.511,1.511v4.836a1.513,1.513,0,0,0,1.511,1.511h4.836a1.513,1.513,0,0,0,1.511-1.511V350.2A1.513,1.513,0,0,0,112.424,348.685Zm-.3,6.045h-4.231V350.5h4.231Z" transform="translate(-106.077 -348.685)" fill="#fff"/>
        </g>
      </g>
    </g>
  </g>
</svg>
