<svg xmlns="http://www.w3.org/2000/svg" width="131" height="131" viewBox="0 0 131 131">
  <g id="Agrupar_136" data-name="Agrupar 136" transform="translate(-617 -1419)">
    <circle id="Elipse_19" data-name="Elipse 19" cx="65.5" cy="65.5" r="65.5" transform="translate(617 1419)" fill="#0d5269"/>
    <g id="nightime" transform="translate(654.093 1441.628)">
      <path id="Caminho_58" data-name="Caminho 58" d="M37.285,152.3a26.774,26.774,0,0,0-20.392,44.142v12.075a1.2,1.2,0,0,0,1.2,1.2h3.838a1.2,1.2,0,0,0,1.1-.727l2.5-5.831a26.75,26.75,0,0,0,23.5,0l2.5,5.831a1.2,1.2,0,0,0,1.1.727h3.838a1.2,1.2,0,0,0,1.2-1.2V196.439A26.774,26.774,0,0,0,37.285,152.3ZM21.141,207.314H19.293v-8.4A26.909,26.909,0,0,0,23.419,202ZM12.9,179.086a24.39,24.39,0,1,1,24.39,24.39A24.417,24.417,0,0,1,12.9,179.086ZM53.43,207.314,51.152,202a26.95,26.95,0,0,0,4.126-3.083v8.4Zm0,0" transform="translate(-8.82 -127.987)" fill="#f8c146"/>
      <path id="Caminho_59" data-name="Caminho 59" d="M75.948,187.8a1.2,1.2,0,1,0-1.3,2.017,19.208,19.208,0,0,1,8.815,15.016h-2.6a1.2,1.2,0,0,0,0,2.4h2.6a19.3,19.3,0,0,1-18.034,18.034v-2.6a1.2,1.2,0,0,0-2.4,0v2.6A19.3,19.3,0,0,1,45,207.23h2.6a1.2,1.2,0,0,0,0-2.4H45A19.3,19.3,0,0,1,63.03,186.8v2.6a1.2,1.2,0,0,0,2.4,0v-2.6a19.188,19.188,0,0,1,4.852.928,1.2,1.2,0,0,0,.753-2.278,21.688,21.688,0,1,0,4.915,2.349Zm0,0" transform="translate(-35.764 -154.932)" fill="#f8c146"/>
      <path id="Caminho_60" data-name="Caminho 60" d="M270.947,113.318a7.6,7.6,0,0,0-10.439,2.54l-1.331,2.185a1.212,1.212,0,0,0,.4,1.649l10.929,6.652a1.211,1.211,0,0,0,1.649-.4l1.331-2.185A7.606,7.606,0,0,0,270.947,113.318Zm.49,9.192-.707,1.161-8.88-5.4.706-1.162a5.2,5.2,0,1,1,8.88,5.405Zm0,0" transform="translate(-217.663 -94.297)" fill="#f8c146"/>
      <path id="Caminho_61" data-name="Caminho 61" d="M3.463,126.543a1.2,1.2,0,0,0,.622-.175l10.929-6.653a1.211,1.211,0,0,0,.4-1.648l-1.331-2.186a7.6,7.6,0,0,0-12.978,7.9c.44.723.87,1.45,1.319,2.167A1.223,1.223,0,0,0,3.463,126.543Zm1.43-11.152a5.2,5.2,0,0,1,7.143,1.738l.706,1.161-8.88,5.405-.707-1.161A5.2,5.2,0,0,1,4.893,115.39Zm0,0" transform="translate(0 -94.32)" fill="#f8c146"/>
      <path id="Caminho_62" data-name="Caminho 62" d="M124.855,262.9a3.764,3.764,0,0,0-3.561,2.559h-5.4a1.2,1.2,0,0,0,0,2.4h5.4a3.758,3.758,0,1,0,6.927-2.869l6.439-6.438a1.2,1.2,0,0,0-1.7-1.7l-6.438,6.438A3.739,3.739,0,0,0,124.855,262.9Zm0,5.118a1.359,1.359,0,1,1,1.359-1.359A1.361,1.361,0,0,1,124.855,268.015Zm0,0" transform="translate(-96.39 -215.557)" fill="#f8c146"/>
      <path id="Caminho_63" data-name="Caminho 63" d="M204.071,66.524h2.623l-3.559,4.448a1.21,1.21,0,0,0,.937,1.949h5.118a1.2,1.2,0,1,0,0-2.4h-2.622l3.558-4.448a1.21,1.21,0,0,0-.937-1.949h-5.118a1.2,1.2,0,0,0,0,2.4Zm0,0" transform="translate(-170.488 -53.889)" fill="#f8c146"/>
      <path id="Caminho_64" data-name="Caminho 64" d="M260.18,34.462H262.8l-3.559,4.448a1.211,1.211,0,0,0,.937,1.949H265.3a1.2,1.2,0,1,0,0-2.4h-2.622l3.558-4.449a1.21,1.21,0,0,0-.936-1.949H260.18a1.2,1.2,0,0,0,0,2.4Zm0,0" transform="translate(-217.641 -26.945)" fill="#f8c146"/>
      <path id="Caminho_65" data-name="Caminho 65" d="M321.407,6.4h-2.622l3.558-4.449A1.21,1.21,0,0,0,321.407,0H316.29a1.2,1.2,0,1,0,0,2.4h2.623l-3.559,4.448A1.211,1.211,0,0,0,316.29,8.8h5.118a1.2,1.2,0,0,0,0-2.4Zm0,0" transform="translate(-264.794)" fill="#f8c146"/>
    </g>
  </g>
</svg>
