<svg xmlns="http://www.w3.org/2000/svg" width="131" height="131" viewBox="0 0 131 131">
  <g id="Agrupar_147" data-name="Agrupar 147" transform="translate(-205 -1419)">
    <g id="Agrupar_75" data-name="Agrupar 75" transform="translate(-43 -886)">
      <circle id="Elipse_19" data-name="Elipse 19" cx="65.5" cy="65.5" r="65.5" transform="translate(248 2305)" fill="#0d5269"/>
    </g>
    <g id="rocket" transform="translate(232 1448.548)">
      <g id="Agrupar_79" data-name="Agrupar 79" transform="translate(0 0.001)">
        <g id="Agrupar_78" data-name="Agrupar 78" transform="translate(0 0)">
          <path id="Caminho_55" data-name="Caminho 55" d="M71.787,1.058A1.066,1.066,0,0,0,70.751.022,56.121,56.121,0,0,0,44.658,5.668a1.067,1.067,0,0,0-.48,1.446h0a1.064,1.064,0,0,0,1.414.47Q47.8,6.5,50.107,5.634a50.945,50.945,0,0,0,7.15,8.918,50.868,50.868,0,0,0,8.919,7.15c-.054.143-.106.287-.162.43A53.388,53.388,0,0,1,53.926,40.615,53.635,53.635,0,0,1,28.563,54.86L16.949,43.246a53.939,53.939,0,0,1,24.2-33.223,1.066,1.066,0,0,0-1.114-1.818A56.273,56.273,0,0,0,24.391,22.5,16.854,16.854,0,0,0,4.336,48.854a1.067,1.067,0,0,0,1.288.229,1.1,1.1,0,0,0,.566-.856,5.127,5.127,0,0,1,2.465-3.765c1.66-.98,3.816-1,6.257-.079A17.568,17.568,0,0,0,7.645,54.616a1.091,1.091,0,0,0,.146.861,1.067,1.067,0,0,0,1.2.427l1.511-.459a27.858,27.858,0,0,0-2.863,7.462,1.09,1.09,0,0,0,.092.71,1.068,1.068,0,0,0,1.154.561,27.942,27.942,0,0,0,7.484-2.871l-.45,1.481a1.1,1.1,0,0,0,.1.894,1.066,1.066,0,0,0,1.158.487A17.561,17.561,0,0,0,27.425,56.9c.926,2.441.9,4.6-.079,6.257a5.127,5.127,0,0,1-3.77,2.466,1.089,1.089,0,0,0-.809.492,1.067,1.067,0,0,0,.188,1.362,16.839,16.839,0,0,0,23.2-.607A17.044,17.044,0,0,0,47.3,65.592a1.069,1.069,0,0,0-.206-1.549h0a1.069,1.069,0,0,0-1.447.2,14.892,14.892,0,0,1-1.007,1.114,14.713,14.713,0,0,1-18.673,1.779,7.257,7.257,0,0,0,3.212-2.9,8.769,8.769,0,0,0,.465-7.451,55.637,55.637,0,0,0,17.908-8.109A14.706,14.706,0,0,1,47.9,60.44a1.068,1.068,0,0,0,.522,1.362h0a1.063,1.063,0,0,0,1.449-.552,16.835,16.835,0,0,0-.556-13.833,56.181,56.181,0,0,0,6.12-5.295A55.506,55.506,0,0,0,68,22.9,55.734,55.734,0,0,0,71.787,1.058ZM7.571,42.626a7.256,7.256,0,0,0-2.9,3.212A14.726,14.726,0,0,1,23.132,24.253a55.634,55.634,0,0,0-8.11,17.908A8.769,8.769,0,0,0,7.571,42.626ZM18.529,61.519,19.2,59.31a1.066,1.066,0,0,0-1.611-1.2,32.892,32.892,0,0,1-7.447,3.553A32.753,32.753,0,0,1,13.7,54.221a1.066,1.066,0,0,0-1.2-1.612l-2.209.671a16.28,16.28,0,0,1,6.25-7.428l9.417,9.417A16.279,16.279,0,0,1,18.529,61.519ZM66.913,19.644a48.942,48.942,0,0,1-8.148-6.6,48.994,48.994,0,0,1-6.6-8.143A54.175,54.175,0,0,1,69.674,2.135,53.554,53.554,0,0,1,66.913,19.644Z" transform="translate(0 -0.001)" fill="#f8c146"/>
        </g>
      </g>
      <g id="Agrupar_81" data-name="Agrupar 81" transform="translate(35.063 14.138)">
        <g id="Agrupar_80" data-name="Agrupar 80">
          <path id="Caminho_56" data-name="Caminho 56" d="M269.3,104.109a11.307,11.307,0,1,0,0,15.99A11.232,11.232,0,0,0,269.3,104.109Zm-1.508,14.483a9.175,9.175,0,1,1,0-12.975A9.114,9.114,0,0,1,267.789,118.591Z" transform="translate(-250 -100.797)" fill="#f8c146"/>
        </g>
      </g>
      <g id="Agrupar_83" data-name="Agrupar 83" transform="translate(38.406 17.486)">
        <g id="Agrupar_82" data-name="Agrupar 82">
          <path id="Caminho_57" data-name="Caminho 57" d="M287.426,127a7.958,7.958,0,1,0,0,11.26A7.971,7.971,0,0,0,287.426,127Zm-1.508,9.752a5.827,5.827,0,1,1,0-8.245A5.836,5.836,0,0,1,285.918,136.751Z" transform="translate(-273.838 -124.671)" fill="#f8c146"/>
        </g>
      </g>
    </g>
  </g>
</svg>
