<svg xmlns="http://www.w3.org/2000/svg" width="131" height="131" viewBox="0 0 131 131">
  <g id="Agrupar_138" data-name="Agrupar 138" transform="translate(-985 -1419)">
    <g id="Agrupar_77" data-name="Agrupar 77" transform="translate(737 -886)">
      <circle id="Elipse_19" data-name="Elipse 19" cx="65.5" cy="65.5" r="65.5" transform="translate(248 2305)" fill="#0d5269"/>
    </g>
    <g id="workspace" transform="translate(1015.75 1450)">
      <path id="Caminho_66" data-name="Caminho 66" d="M498.26,418.5a1.01,1.01,0,0,0-1.01,1.01v10.572a1.011,1.011,0,0,0,2.02,0V419.51A1.01,1.01,0,0,0,498.26,418.5Z" transform="translate(-430.069 -362.141)" fill="#f8c146"/>
      <path id="Caminho_67" data-name="Caminho 67" d="M68.191,33.58H60.259V29.939h2.426a2.681,2.681,0,0,0,2.678-2.678V2.678A2.681,2.681,0,0,0,62.685,0H25a2.681,2.681,0,0,0-2.678,2.678V6.3a1.011,1.011,0,0,0,2.02,0V2.678A.658.658,0,0,1,25,2.02H62.685a.658.658,0,0,1,.658.658V22.263H60.259V11.5a1.01,1.01,0,0,0-1.375-.942c-.264.1-5.837,2.378-7.022,11.7H24.346V11.556a1.011,1.011,0,0,0-2.02,0v15.7A2.681,2.681,0,0,0,25,29.939H38.571V33.58H15.638c2.237-2.235,2.456-5.773,2.456-8.747a1.01,1.01,0,0,0-1.01-1.01H11.63V21.917a5.69,5.69,0,0,0,6.729-5.339,1.3,1.3,0,0,0-.479-1.185,5.448,5.448,0,0,0-6.25.644V14.215a5.7,5.7,0,0,0,.327-8.873,3.905,3.905,0,0,0-.92-.566C9.613,4.195,8.048,6.73,7.709,7.709a5.72,5.72,0,0,0,1.9,6.44v1.876a5.65,5.65,0,0,0-4.644-1.244c-.684.137-1.881.446-2.031,1.275-.641,3.565,3.4,6.551,6.674,5.863v1.9H3.751a1.01,1.01,0,0,0-1.01,1.01c0,2.969.161,6.512,2.4,8.747H1.26A1.01,1.01,0,0,0,.25,34.59v33.35a1.011,1.011,0,0,0,2.02,0V63.227H20.518v4.713a1.011,1.011,0,0,0,2.02,0V42.219H58.254c.005.352.039,2.247.043,2.815H41.2c-3.993,0-6.952,1.039-8.794,3.089a7.7,7.7,0,0,0-1.907,5.57,1.01,1.01,0,0,0,1,.9H44.556v1.818H40.583a1.011,1.011,0,0,0,0,2.02h3.973v8.5H31.628a1.011,1.011,0,0,0,0,2.02H45.206a1,1,0,0,0,.72,0H59.5a1.011,1.011,0,0,0,0-2.02H46.576V54.6h6.748c2.319,0,3.995-.559,5.124-1.709,1.98-2.015,1.919-5.39,1.843-9.662-.006-.33-.012-.667-.017-1.006H67.18v9.494a1.011,1.011,0,0,0,2.02,0V34.59A1.01,1.01,0,0,0,68.191,33.58ZM13.316,17.3a3.4,3.4,0,0,1,3.019-.422,3.725,3.725,0,0,1-4.669,2.958A3.47,3.47,0,0,1,13.316,17.3ZM6.6,19.405A3.536,3.536,0,0,1,4.92,16.881,3.693,3.693,0,0,1,9.585,19.84,3.582,3.582,0,0,1,6.6,19.405ZM10.672,6.891a3.7,3.7,0,0,1-.006,5.529A3.461,3.461,0,0,1,9.411,9.667,3.4,3.4,0,0,1,10.672,6.891Zm-5.9,18.953H16.058c-.171,5.456-1.8,7.609-5.641,7.609C6.523,33.453,4.939,31.369,4.776,25.844ZM57.007,51.471a5,5,0,0,1-3.683,1.1H32.539a5.592,5.592,0,0,1,1.374-3.1c1.443-1.605,3.9-2.419,7.291-2.419H58.271C58.188,49.034,57.888,50.574,57.007,51.471Zm6.335-27.189v2.978a.658.658,0,0,1-.658.658H60.259V24.283ZM56.66,15a9.8,9.8,0,0,1,1.58-1.659v25.3a10.316,10.316,0,0,1-1.57-1.7c-1.968-2.658-3.009-6.471-3.009-11.026S54.7,17.589,56.66,15ZM51.912,29.939a21.622,21.622,0,0,0,.827,3.642H49.117V29.939ZM24.346,27.261V24.282H51.683a31.1,31.1,0,0,0,.023,3.636H25A.658.658,0,0,1,24.346,27.261Zm16.245,2.678H47.1v3.642H40.591ZM53.532,35.6a13.386,13.386,0,0,0,3.416,4.6H2.27V35.6ZM2.27,61.207V52.723H20.518v8.484ZM20.518,50.7H2.27V42.219H20.518ZM60.259,40.2V35.6H67.18v4.6Z" fill="#f8c146"/>
      <path id="Caminho_68" data-name="Caminho 68" d="M48.472,339.52h7.676a1.011,1.011,0,0,0,0-2.02H48.472A1.011,1.011,0,0,0,48.472,339.52Z" transform="translate(-40.883 -292.049)" fill="#f8c146"/>
      <path id="Caminho_69" data-name="Caminho 69" d="M56.148,415.5H48.472a1.011,1.011,0,0,0,0,2.02h7.676A1.011,1.011,0,0,0,56.148,415.5Z" transform="translate(-40.883 -359.545)" fill="#f8c146"/>
    </g>
  </g>
</svg>
