<svg xmlns="http://www.w3.org/2000/svg" width="133" height="133" viewBox="0 0 133 133">
  <g id="Agrupar_63" data-name="Agrupar 63" transform="translate(-1030 -1407)">
    <circle id="Elipse_17" data-name="Elipse 17" cx="66.5" cy="66.5" r="66.5" transform="translate(1030 1407)" fill="#5cc79f"/>
    <path id="lightbulb" d="M39.573,11.4a.917.917,0,1,0-1.633.837,19.113,19.113,0,0,1-1.756,20.184,8.165,8.165,0,0,0-1.618,4.9v.117a4.536,4.536,0,0,1-4.531,4.531H21.849V30.35a6.8,6.8,0,0,0,5.871-6.724.917.917,0,1,0-1.835,0,4.953,4.953,0,1,1-9.907,0,.917.917,0,1,0-1.835,0,6.8,6.8,0,0,0,5.871,6.724V41.965H11.827A4.536,4.536,0,0,1,7.3,37.434v-.118a8.254,8.254,0,0,0-1.675-4.969A19.118,19.118,0,0,1,20.9,1.834h.036A18.964,18.964,0,0,1,36.126,9.362.917.917,0,0,0,37.585,8.25a21.119,21.119,0,0,0-7.229-6.013A20.9,20.9,0,0,0,6.064,6.229,20.89,20.89,0,0,0,4.152,33.445a6.436,6.436,0,0,1,1.31,3.871v.118a6.354,6.354,0,0,0,2.281,4.877,3.877,3.877,0,0,0,.573,7.272,3.876,3.876,0,0,0,3.2,6.061h2.6a6.838,6.838,0,0,0,13.553,0h2.6a3.877,3.877,0,0,0,3.2-6.061,3.877,3.877,0,0,0,.615-7.253,6.355,6.355,0,0,0,2.3-4.9v-.117a6.322,6.322,0,0,1,1.247-3.79A20.949,20.949,0,0,0,39.573,11.4ZM20.9,59.733a5.013,5.013,0,0,1-4.919-4.088h9.839A5.013,5.013,0,0,1,20.9,59.733ZM32.458,43.8a2.044,2.044,0,1,1,0,4.088H16.489a.917.917,0,1,0,0,1.834h13.79a2.044,2.044,0,1,1,0,4.088H11.519a2.044,2.044,0,0,1,0-4.088h1.3a.917.917,0,0,0,0-1.834H9.34a2.044,2.044,0,0,1,0-4.088Zm0,0" transform="translate(1076 1443.001)" fill="#fff"/>
  </g>
</svg>
