<svg xmlns="http://www.w3.org/2000/svg" width="131" height="131" viewBox="0 0 131 131">
  <g id="Agrupar_148" data-name="Agrupar 148" transform="translate(-1031 -1419)">
    <g id="Agrupar_141" data-name="Agrupar 141" transform="translate(46)">
      <g id="Agrupar_77" data-name="Agrupar 77" transform="translate(737 -886)">
        <circle id="Elipse_19" data-name="Elipse 19" cx="65.5" cy="65.5" r="65.5" transform="translate(248 2305)" fill="#0d5269"/>
      </g>
    </g>
    <path id="compose" d="M64.6,10.9v-.025l-.393-.374c-.18-.171-.366-.332-.55-.5q-.123-.114-.247-.224-.566-.511-1.15-1L62.05,8.6q-.616-.505-1.25-.983L60.64,7.5q-.669-.5-1.354-.964l-.11-.075q-.711-.479-1.44-.923c-.03-.019-.061-.038-.092-.056q-.737-.447-1.493-.859l-.1-.056q-.749-.4-1.512-.775l-.142-.068q-.743-.357-1.5-.679l-.208-.089q-.722-.3-1.457-.575l-.052-.02-.054-.022c-.063-.024-.128-.046-.191-.068-.461-.167-.925-.323-1.392-.472-.132-.042-.263-.086-.4-.127-.437-.134-.878-.258-1.321-.376-.165-.044-.329-.091-.5-.133-.415-.105-.833-.2-1.254-.29-.194-.042-.388-.087-.583-.127-.4-.08-.8-.148-1.2-.215C44.071.5,43.856.456,43.637.424c-.393-.058-.789-.105-1.184-.151C42.224.247,42,.215,41.771.193c-.422-.042-.846-.07-1.27-.1C40.3.082,40.1.062,39.891.052Q38.953,0,38,0T36.105.048c-.2.01-.405.03-.609.043-.424.028-.849.056-1.27.1-.229.023-.455.054-.681.081-.4.047-.792.092-1.184.151-.219.033-.434.073-.652.109-.4.067-.8.136-1.2.215-.2.039-.389.085-.583.127-.419.091-.839.185-1.254.29-.166.042-.331.089-.5.133-.442.118-.883.242-1.321.376-.133.041-.263.084-.4.127q-.7.222-1.392.472l-.191.068-.054.022-.052.02q-.733.274-1.457.575l-.208.089q-.756.323-1.5.679l-.142.068q-.764.37-1.512.775l-.1.056q-.756.412-1.493.859c-.03.019-.061.038-.092.056q-.73.445-1.44.923l-.11.075Q16.024,7,15.356,7.5l-.16.119c-.423.318-.839.646-1.25.983-.071.057-.141.115-.21.174q-.583.486-1.15,1L12.339,10c-.179.171-.366.332-.546.5l-.393.374V10.9a38,38,0,1,0,53.2,0ZM37.987,65.819l.008.01h-.02ZM27.879,51.227a13.927,13.927,0,0,1,20.241,0L38,63.906Zm21.826-1.985a16.411,16.411,0,0,0-23.411,0L14.446,34.4l10.887-8.711,11.418,9.135,0,.123.385.187.684.505.2-.1.21.1.626-.5.413-.225v-.1l11.4-9.121L61.554,34.4ZM14.163,11.76a.05.05,0,0,1,.013-.01,35.626,35.626,0,0,1,6.919-4.921l.046-.024q.716-.388,1.452-.745L22.719,6q.665-.319,1.348-.611v18.07L13.933,31.564V11.979C14.011,11.907,14.085,11.831,14.163,11.76Zm13.5-7.686q.587-.179,1.184-.337c.168-.046.338-.091.508-.133.372-.094.747-.179,1.124-.26.194-.042.388-.086.584-.124.358-.071.719-.133,1.082-.194.212-.035.423-.073.636-.105.358-.053.721-.1,1.082-.138.215-.025.429-.054.645-.076.386-.038.776-.063,1.167-.089.191-.013.38-.03.573-.041.16-.008.323-.006.485-.013v29L26.6,23.459V4.423c.214-.073.427-.149.643-.218C27.383,4.161,27.523,4.117,27.665,4.074ZM40.324,2.618c.39.025.78.051,1.167.089.215.022.431.051.645.076.362.042.723.085,1.082.138.213.032.424.07.636.105.362.061.723.123,1.082.194.2.039.389.082.584.124.376.081.752.167,1.124.26.17.043.338.089.508.133q.6.16,1.184.337l.422.132c.217.07.429.146.643.218V23.459L39.267,31.565v-29c.162.005.326,0,.486.013C39.944,2.587,40.134,2.606,40.324,2.618ZM53.41,6.06c.49.238.974.485,1.452.745l.046.024a35.625,35.625,0,0,1,6.919,4.921l.013.01c.076.071.151.147.228.219V31.564L51.933,23.459V5.388q.682.293,1.349.611C53.325,6.02,53.368,6.039,53.41,6.06ZM38,73.467A35.44,35.44,0,0,1,11.4,14.578V34.643L36.749,66.4l.006.255h0v.014l.405.19.628.494.025-.011.009.006.2-.1.2.091.01-.008.023.01.593-.491.175-.1.247-.125V66.38L64.6,34.643V14.578A35.44,35.44,0,0,1,38,73.467Z" transform="translate(1059 1447)" fill="#f8c146"/>
  </g>
</svg>
