<svg xmlns="http://www.w3.org/2000/svg" width="133" height="133" viewBox="0 0 133 133">
  <g id="Grupo_203" data-name="Grupo 203" transform="translate(-478 -1407)">
    <g id="Grupo_61" data-name="Grupo 61">
      <path id="Caminho_49" data-name="Caminho 49" d="M66.5,0A66.5,66.5,0,1,1,0,66.5,66.5,66.5,0,0,1,66.5,0Z" transform="translate(478 1407)" fill="#5cc79f"/>
    </g>
    <g id="solution" transform="translate(507.733 1435.796)">
      <g id="Grupo_192" data-name="Grupo 192" transform="translate(32.628 25.089)">
        <g id="Grupo_191" data-name="Grupo 191">
          <path id="Caminho_219" data-name="Caminho 219" d="M245.649,160.049h-16.3a1.254,1.254,0,0,0-1.254,1.254v5.016a1.254,1.254,0,0,0,1.254,1.254h3.762a2.508,2.508,0,0,1,0,5.016h-3.762a1.254,1.254,0,0,0-1.254,1.254v6.27H209.281a1.254,1.254,0,0,0-1.254,1.254v16.3a5.016,5.016,0,0,0,5.016,5.016h32.606a5.016,5.016,0,0,0,5.016-5.016V165.065A5.016,5.016,0,0,0,245.649,160.049ZM228.092,200.18H213.043a2.508,2.508,0,0,1-2.508-2.508V182.622h17.557v2.508h-2.508a5.016,5.016,0,1,0,0,10.033h2.508Zm20.065-2.508a2.508,2.508,0,0,1-2.508,2.508H230.6v-6.27a1.254,1.254,0,0,0-1.254-1.254h-3.762a2.508,2.508,0,1,1,0-5.016h3.762a1.254,1.254,0,0,0,1.254-1.254v-3.762h3.762v2.508a5.016,5.016,0,0,0,10.033,0v-2.508h3.762Zm0-17.557h-5.016a1.254,1.254,0,0,0-1.254,1.254v3.762a2.508,2.508,0,1,1-5.016,0v-3.762a1.254,1.254,0,0,0-1.254-1.254H230.6V175.1h2.508a5.016,5.016,0,0,0,0-10.033H230.6v-2.508h15.049a2.508,2.508,0,0,1,2.508,2.508Z" transform="translate(-208.027 -160.049)" fill="#fff"/>
        </g>
      </g>
      <g id="Grupo_194" data-name="Grupo 194" transform="translate(0.022 0)">
        <g id="Grupo_193" data-name="Grupo 193" transform="translate(0 0)">
          <path id="Caminho_220" data-name="Caminho 220" d="M55.2,5.024H52.694V1.262A1.254,1.254,0,0,0,51.44.008h-16.3A5.016,5.016,0,0,0,30.12,5.024V19.07l-5.188,2.508A10.22,10.22,0,0,0,22.078,19a10.033,10.033,0,1,0-9.643-.359,10.056,10.056,0,0,0-5.312,6.461l-5,15.732a18.811,18.811,0,0,0,.806,13.5A16.269,16.269,0,0,1,2.672,68.4L.154,73.438a1.254,1.254,0,0,0,1.122,1.815H15.071A1.254,1.254,0,0,0,16.325,74a6.235,6.235,0,0,0-3.353-5.539l.6-1.2a18.955,18.955,0,0,0,1.684-11.8l-.931-5.117a1.215,1.215,0,0,1,2.39-.435l1.7,9.37a25.846,25.846,0,0,1,.415,4.613V74a1.254,1.254,0,0,0,1.254,1.254H33.882A1.254,1.254,0,0,0,35.137,74a6.273,6.273,0,0,0-.043-.73A5.553,5.553,0,0,0,32,68.9a6.077,6.077,0,0,0-4.522-.4l.835-4.174a28.37,28.37,0,0,0,.549-5.549V47.555L27.4,30.762l8.7-4.152a4.687,4.687,0,0,0,2.775-4.028H51.44a1.254,1.254,0,0,0,1.254-1.254v-6.27H55.2a5.016,5.016,0,0,0,0-10.033ZM10.055,10.04a7.524,7.524,0,1,1,7.524,7.524A7.524,7.524,0,0,1,10.055,10.04ZM27.48,71.217a3.569,3.569,0,0,1,3.386-.074,3.15,3.15,0,0,1,1.525,1.6H21.342V63.9a28.31,28.31,0,0,0-.456-5.061l-1.7-9.369a3.722,3.722,0,0,0-7.335,1.268c0,.021.008.042.012.063l.932,5.117A16.438,16.438,0,0,1,11.328,66.14L10.11,68.575a1.254,1.254,0,0,0,.823,1.787A3.748,3.748,0,0,1,13.6,72.744H3.306l1.608-3.22a18.771,18.771,0,0,0,.3-16.225,16.3,16.3,0,0,1-.7-11.7L9.531,25.8a7.7,7.7,0,0,1,8.88-5.583,7.4,7.4,0,0,1,4.2,2.478L15.2,26.272a4.654,4.654,0,1,0,4.026,8.392l5.769-2.75,1.367,15.749V58.78a25.954,25.954,0,0,1-.5,5.056L24.52,70.516a1.254,1.254,0,0,0,1.852,1.336Zm7.6-46.9-.038.016L18.141,32.4a2.146,2.146,0,0,1-1.857-3.87L33.318,20.3a2.192,2.192,0,0,1,3.072,2.009A2.195,2.195,0,0,1,35.078,24.322ZM55.2,12.549H51.44A1.254,1.254,0,0,0,50.186,13.8v6.27H38.333a4.687,4.687,0,0,0-5.7-2.18V5.024a2.508,2.508,0,0,1,2.508-2.508H50.186V6.278A1.254,1.254,0,0,0,51.44,7.532H55.2a2.508,2.508,0,0,1,0,5.016Z" transform="translate(-0.022 0)" fill="#fff"/>
        </g>
      </g>
      <g id="Grupo_196" data-name="Grupo 196" transform="translate(32.996 30.106)">
        <g id="Grupo_195" data-name="Grupo 195">
          <path id="Caminho_221" data-name="Caminho 221" d="M227.928,194.925l-4.13,4.13v-7.005H221.29v9.513l-1.254,1.254-1.254-1.254v-4.5h-2.508v1.989l-4.13-4.13-1.773,1.773,8.779,8.779a1.254,1.254,0,0,0,1.773,0L229.7,196.7Z" transform="translate(-210.371 -192.049)" fill="#fff"/>
        </g>
      </g>
      <g id="Grupo_198" data-name="Grupo 198" transform="translate(38.899 30.106)">
        <g id="Grupo_197" data-name="Grupo 197">
          <rect id="Retângulo_72" data-name="Retângulo 72" width="2.508" height="2.508" fill="#fff"/>
        </g>
      </g>
      <g id="Grupo_200" data-name="Grupo 200" transform="translate(38.899 25.089)">
        <g id="Grupo_199" data-name="Grupo 199">
          <rect id="Retângulo_73" data-name="Retângulo 73" width="2.508" height="2.508" fill="#fff"/>
        </g>
      </g>
      <g id="Grupo_202" data-name="Grupo 202" transform="translate(43.915 25.089)">
        <g id="Grupo_201" data-name="Grupo 201">
          <rect id="Retângulo_74" data-name="Retângulo 74" width="2.508" height="2.508" fill="#fff"/>
        </g>
      </g>
    </g>
  </g>
</svg>
