<svg xmlns="http://www.w3.org/2000/svg" width="133" height="133" viewBox="0 0 133 133">
  <g id="Grupo_214" data-name="Grupo 214" transform="translate(-754 -1407)">
    <g id="Grupo_175" data-name="Grupo 175">
      <circle id="Elipse_16" data-name="Elipse 16" cx="66.5" cy="66.5" r="66.5" transform="translate(754 1407)" fill="#5cc79f"/>
    </g>
    <g id="idea" transform="translate(783.832 1435.832)">
      <g id="Grupo_205" data-name="Grupo 205">
        <g id="Grupo_204" data-name="Grupo 204">
          <path id="Caminho_222" data-name="Caminho 222" d="M49.708,63.044h-.032a6,6,0,0,0,1.244-3.637V51.168a8.526,8.526,0,0,0-7.286-8.4l-9.687-1.385v-.161h-.538a13.378,13.378,0,0,0,7.3-8.487h.516a4.854,4.854,0,0,0,4.85-4.85V14.669a8.78,8.78,0,0,0-6.593-8.483A16.771,16.771,0,0,0,9.7,16.771V27.885a4.854,4.854,0,0,0,4.85,4.85h.516a13.377,13.377,0,0,0,7.3,8.487h-.538v.161l-9.687,1.385a8.526,8.526,0,0,0-7.286,8.4v8.239a6,6,0,0,0,1.244,3.637H6.062a6.062,6.062,0,0,0,0,12.124H23.035a6.04,6.04,0,0,0,4.85-2.462,6.04,6.04,0,0,0,4.85,2.462H49.708a6.062,6.062,0,0,0,0-12.124ZM41.221,30.31h-.062c.036-.4.062-.8.062-1.212V25.46a2.425,2.425,0,0,1,0,4.85Zm-26.673,0a2.425,2.425,0,1,1,0-4.85V29.1c0,.41.025.812.062,1.212Zm0-9.7v2.425a4.8,4.8,0,0,0-2.425.674V16.77A14.346,14.346,0,0,1,37.671,7.808l.455.569.433.086a6.348,6.348,0,0,1,5.087,6.206v9.041a4.8,4.8,0,0,0-2.425-.674V20.611H39.593a15.243,15.243,0,0,1-10.851-4.494l-.857-.857-.857.857a15.243,15.243,0,0,1-10.851,4.494ZM16.973,29.1V23.018a17.62,17.62,0,0,0,10.911-4.384A17.627,17.627,0,0,0,38.8,23.018V29.1a10.911,10.911,0,0,1-21.823,0Zm14.549,12.82v.32a3.834,3.834,0,0,1-7.274,0v-.32a13.051,13.051,0,0,0,7.274,0ZM7.274,51.168a6.092,6.092,0,0,1,5.2-6l9.792-1.4a6.24,6.24,0,0,0,11.228,0l9.791,1.4a6.093,6.093,0,0,1,5.2,6v.965h-4.85V49.708H41.221V55.77h-9.7a4.819,4.819,0,0,0-3.637,1.676,4.819,4.819,0,0,0-3.637-1.676h-9.7V49.708H12.124v2.425H7.274ZM48.5,54.557v4.85a3.642,3.642,0,0,1-3.637,3.637H31.522a2.425,2.425,0,1,1,0-4.85H43.646V54.557ZM19.4,72.743H6.062a3.637,3.637,0,0,1,0-7.274H19.4Zm3.637,0H21.823V65.469h1.212a3.637,3.637,0,0,1,0,7.274Zm1.212-9.7H10.911a3.642,3.642,0,0,1-3.637-3.637v-4.85h4.85v3.637H24.248a2.425,2.425,0,1,1,0,4.85Zm3.637,2.462a6.018,6.018,0,0,0-.857-.925,4.891,4.891,0,0,0,.857-.788,4.807,4.807,0,0,0,.857.788A6.018,6.018,0,0,0,27.885,65.506Zm6.062,7.237H32.734a3.637,3.637,0,0,1,0-7.274h1.212Zm15.761,0H36.372V65.469H49.708a3.637,3.637,0,0,1,0,7.274Z" fill="#fff"/>
        </g>
      </g>
      <g id="Grupo_207" data-name="Grupo 207" transform="translate(48.494 0.003)">
        <g id="Grupo_206" data-name="Grupo 206">
          <path id="Caminho_223" data-name="Caminho 223" d="M341.814,23.621a13.216,13.216,0,0,0,4.85-10.27,13.338,13.338,0,0,0-26.542-1.89,13.216,13.216,0,0,0,4.719,12.16v.641h-2.425v2.425h2.425v2.425h-2.425v2.425h2.425a4.854,4.854,0,0,0,4.85,4.85h7.274a4.854,4.854,0,0,0,4.85-4.85h2.425V29.112h-2.425V26.687h2.425V24.263h-2.425Zm-2.425,5.491h-2.425v2.425h2.425a2.427,2.427,0,0,1-2.425,2.425H329.69a2.427,2.427,0,0,1-2.425-2.425h7.274V29.112h-7.274V26.687h12.124Zm.484-7.046-.484.363v1.834h-4.85V18.028a4.85,4.85,0,1,0-2.425,0v6.234h-4.85V22.428l-.484-.363a10.836,10.836,0,0,1-4.258-10.273,10.973,10.973,0,0,1,9.523-9.281,11.686,11.686,0,0,1,1.295-.073,10.786,10.786,0,0,1,7.25,2.77,10.895,10.895,0,0,1-.719,16.856Zm-6.546-6.29a2.425,2.425,0,1,1,2.425-2.425A2.427,2.427,0,0,1,333.327,15.776Z" transform="translate(-319.99 -0.017)" fill="#fff"/>
        </g>
      </g>
      <g id="Grupo_209" data-name="Grupo 209" transform="translate(58.195 38.796)">
        <g id="Grupo_208" data-name="Grupo 208">
          <rect id="Retângulo_75" data-name="Retângulo 75" width="2.425" height="10.911" fill="#fff"/>
        </g>
      </g>
      <g id="Grupo_211" data-name="Grupo 211" transform="translate(63.044 38.796)">
        <g id="Grupo_210" data-name="Grupo 210">
          <rect id="Retângulo_76" data-name="Retângulo 76" width="2.425" height="15.761" fill="#fff"/>
        </g>
      </g>
      <g id="Grupo_213" data-name="Grupo 213" transform="translate(58.195 52.133)">
        <g id="Grupo_212" data-name="Grupo 212">
          <rect id="Retângulo_77" data-name="Retângulo 77" width="2.425" height="2.425" fill="#fff"/>
        </g>
      </g>
    </g>
  </g>
</svg>
