<svg xmlns="http://www.w3.org/2000/svg" width="133" height="133" viewBox="0 0 133 133">
  <g id="Grupo_266" data-name="Grupo 266" transform="translate(-1030 -1407)">
    <g id="Grupo_63" data-name="Grupo 63">
      <circle id="Elipse_17" data-name="Elipse 17" cx="66.5" cy="66.5" r="66.5" transform="translate(1030 1407)" fill="#5cc79f"/>
    </g>
    <g id="innovation_1_" data-name="innovation (1)" transform="translate(1056.463 1439.661)">
      <path id="Caminho_211" data-name="Caminho 211" d="M138.377,25.178a25.166,25.166,0,1,0-34.438,23.374V51.73a3.312,3.312,0,0,0-2.649,3.249,3.278,3.278,0,0,0,.68,1.987,3.244,3.244,0,0,0,0,3.974,3.244,3.244,0,0,0,0,3.974,3.276,3.276,0,0,0-.68,1.987,3.312,3.312,0,0,0,2.649,3.243v.068a9.272,9.272,0,0,0,18.543,0v-.068a3.31,3.31,0,0,0,2.649-3.243,3.271,3.271,0,0,0-.679-1.987,3.244,3.244,0,0,0,0-3.974,3.244,3.244,0,0,0,0-3.974,3.273,3.273,0,0,0,.679-1.987,3.311,3.311,0,0,0-2.649-3.244V48.557A25.189,25.189,0,0,0,138.377,25.178Zm-47.683,0a22.517,22.517,0,1,1,30.023,21.228,1.312,1.312,0,0,0-.779.772v.012a1.324,1.324,0,0,0-.091.45c0,.019-.011.034-.011.054v3.974h-5.3v-10.6h.239a2.648,2.648,0,0,0,2.6-2.128l.542-2.709.728-.3,2.3,1.532a2.66,2.66,0,0,0,3.344-.331l2.211-2.212a2.659,2.659,0,0,0,.331-3.342l-1.533-2.3.3-.729,2.707-.541a2.649,2.649,0,0,0,2.13-2.6V22.29a2.649,2.649,0,0,0-2.128-2.6l-2.709-.542-.3-.728,1.533-2.3a2.658,2.658,0,0,0-.331-3.343l-2.213-2.211a2.648,2.648,0,0,0-3.342-.331l-2.3,1.532-.727-.3-.542-2.707a2.649,2.649,0,0,0-2.6-2.13h-3.126a2.648,2.648,0,0,0-2.6,2.128l-.542,2.709-.727.3-2.3-1.532a2.656,2.656,0,0,0-3.343.331L99.93,12.783a2.658,2.658,0,0,0-.331,3.343l1.533,2.3-.3.728-2.707.542a2.65,2.65,0,0,0-2.13,2.6v3.126a2.65,2.65,0,0,0,2.128,2.6l2.709.541.3.729-1.533,2.3a2.659,2.659,0,0,0,.331,3.343l2.212,2.211a2.649,2.649,0,0,0,3.342.331l2.3-1.532.728.3.542,2.707a2.649,2.649,0,0,0,2.6,2.13h.238v10.6h-5.3V47.695c0-.02-.01-.036-.01-.054a1.323,1.323,0,0,0-.091-.45v-.012a1.312,1.312,0,0,0-.779-.772A22.55,22.55,0,0,1,90.694,25.178Zm22.517,2.649a3.974,3.974,0,1,1,3.974-3.974A3.974,3.974,0,0,1,113.211,27.827Zm1.325,2.516a6.623,6.623,0,1,0-2.649,0v8.08h-.238l-.681-3.4a1.324,1.324,0,0,0-.795-.964l-2.033-.843a1.323,1.323,0,0,0-1.242.122l-2.886,1.924L101.8,33.051l1.925-2.886a1.325,1.325,0,0,0,.122-1.242l-.834-2.033a1.326,1.326,0,0,0-.964-.795l-3.407-.678V22.29l3.4-.68a1.326,1.326,0,0,0,.964-.795l.842-2.033a1.325,1.325,0,0,0-.122-1.242L101.8,14.653l2.211-2.211,2.888,1.925a1.323,1.323,0,0,0,1.241.122l2.033-.842a1.325,1.325,0,0,0,.795-.964l.678-3.4h3.126l.681,3.4a1.323,1.323,0,0,0,.794.964l2.033.843a1.324,1.324,0,0,0,1.241-.122l2.888-1.925,2.211,2.211-1.927,2.886a1.323,1.323,0,0,0-.122,1.242l.842,2.033a1.326,1.326,0,0,0,.964.795l3.4.678v3.126l-3.4.681a1.326,1.326,0,0,0-.964.795l-.842,2.033a1.323,1.323,0,0,0,.122,1.242l1.925,2.886-2.211,2.211-2.886-1.927a1.323,1.323,0,0,0-1.242-.122l-2.033.843a1.321,1.321,0,0,0-.794.964l-.678,3.4h-.239ZM104.6,54.317H121.82a.662.662,0,1,1,0,1.325H104.6a.662.662,0,1,1,0-1.325Zm17.881,4.636a.662.662,0,0,1-.662.662H104.6a.662.662,0,1,1,0-1.325H121.82A.662.662,0,0,1,122.482,58.953Zm0,3.974a.662.662,0,0,1-.662.662H104.6a.662.662,0,1,1,0-1.325H121.82A.662.662,0,0,1,122.482,62.927Zm-9.272,13.908a6.631,6.631,0,0,1-6.623-6.623h13.245A6.63,6.63,0,0,1,113.211,76.834Zm8.609-9.272H104.6a.662.662,0,1,1,0-1.325H121.82a.662.662,0,1,1,0,1.325Zm0,0" transform="translate(-73.409 0)" fill="#fff"/>
      <path id="Caminho_212" data-name="Caminho 212" d="M5.555,36.319a3.973,3.973,0,0,0,0-7.341A37.089,37.089,0,0,1,16.225,6.423a1.324,1.324,0,0,0-1.874-1.871A39.734,39.734,0,0,0,2.906,28.859a3.948,3.948,0,0,0,0,7.579A39.735,39.735,0,0,0,14.348,60.75a1.327,1.327,0,1,0,1.877-1.876A37.085,37.085,0,0,1,5.555,36.319ZM4.039,31.324a1.325,1.325,0,1,1-1.325,1.325A1.325,1.325,0,0,1,4.039,31.324Zm0,0" transform="translate(0 -3.497)" fill="#fff"/>
      <path id="Caminho_213" data-name="Caminho 213" d="M396.589,32.545a3.973,3.973,0,0,0-2.84-3.789A39.734,39.734,0,0,0,382.307,4.444a1.327,1.327,0,1,0-1.877,1.876A37.09,37.09,0,0,1,391.1,28.879a3.974,3.974,0,0,0,0,7.341A37.082,37.082,0,0,1,380.43,58.771a1.325,1.325,0,1,0,1.874,1.872,39.736,39.736,0,0,0,11.442-24.312A3.973,3.973,0,0,0,396.589,32.545Zm-3.974,1.325a1.325,1.325,0,1,1,1.325-1.325A1.325,1.325,0,0,1,392.615,33.87Zm0,0" transform="translate(-317.052 -3.394)" fill="#fff"/>
    </g>
  </g>
</svg>
