<svg xmlns="http://www.w3.org/2000/svg" width="133" height="133" viewBox="0 0 133 133">
  <g id="Grupo_265" data-name="Grupo 265" transform="translate(-201 -1407)">
    <path id="Caminho_48" data-name="Caminho 48" d="M66.5,0A66.5,66.5,0,1,1,0,66.5,66.5,66.5,0,0,1,66.5,0Z" transform="translate(201 1407)" fill="#5cc79f"/>
    <g id="home" transform="translate(232 1443.181)">
      <g id="Grupo_177" data-name="Grupo 177" transform="translate(1 0.053)">
        <g id="Grupo_176" data-name="Grupo 176" transform="translate(0 0)">
          <path id="Caminho_205" data-name="Caminho 205" d="M55.291,34.611a1.706,1.706,0,0,0-2.235.017L48.4,38.8V38.25a1.157,1.157,0,1,0-2.314,0v2.618l-1.929,1.726A1.157,1.157,0,0,0,45.7,44.319l8.485-7.6,8.485,7.6a1.157,1.157,0,1,0,1.543-1.724Z" transform="translate(-37.978 -29.572)" fill="#fff"/>
          <path id="Caminho_206" data-name="Caminho 206" d="M75.829,119.52a1.157,1.157,0,0,0-1.157,1.157v8.1H63.1v-8.1a1.157,1.157,0,1,0-2.314,0v8.834a1.6,1.6,0,0,0,1.62,1.579H75.366a1.6,1.6,0,0,0,1.62-1.583v-8.831A1.157,1.157,0,0,0,75.829,119.52Z" transform="translate(-52.68 -104.222)" fill="#fff"/>
          <path id="Caminho_207" data-name="Caminho 207" d="M68.886,221.92a8.1,8.1,0,1,0,8.1,8.1A8.1,8.1,0,0,0,68.886,221.92Zm-5.785,8.1a5.8,5.8,0,0,1,4.628-5.67v5.014l-4.281,2.567A5.7,5.7,0,0,1,63.1,230.019Zm1.54,3.9,4.066-2.44,3.365,3.365A5.73,5.73,0,0,1,64.641,233.915Zm9.067-.711-3.664-3.663V224.35a5.775,5.775,0,0,1,3.664,8.854Z" transform="translate(-52.68 -193.655)" fill="#fff"/>
          <path id="Caminho_208" data-name="Caminho 208" d="M270.071,50.386V46.425a1.826,1.826,0,0,0-1.825-1.825h-3.293a1.826,1.826,0,0,0-1.825,1.825v3.961h-2.314V43.131a2,2,0,0,0-2-2h-2.939a2,2,0,0,0-2,2v7.255h-2.314V37.658a2.314,2.314,0,0,0-2.314-2.314h-2.314a2.314,2.314,0,0,0-2.314,2.314V50.386h-1.157a1.157,1.157,0,0,1-1.157-1.157V35.344a1.157,1.157,0,1,0-2.314,0V49.229a3.471,3.471,0,0,0,3.471,3.471h26.613a1.157,1.157,0,0,0,0-2.314Zm-20.827,0h-2.314V37.658h2.314Zm9.257,0h-2.314V43.444H258.5Zm9.257,0h-2.314V46.915h2.314v3.471Z" transform="translate(-207.582 -29.559)" fill="#fff"/>
          <path id="Caminho_209" data-name="Caminho 209" d="M270.071,221.053H243.458A1.157,1.157,0,0,1,242.3,219.9v-1.835l3.81-3.81a1.181,1.181,0,0,1,1.636,0l1.356,1.356a3.471,3.471,0,0,0,4.908,0l4.827-4.827a1.181,1.181,0,0,1,1.636,0l1.356,1.357a3.478,3.478,0,0,0,4.908,0l4.149-4.149a1.157,1.157,0,0,0-1.636-1.636L265.1,210.5a1.157,1.157,0,0,1-1.636,0l-1.356-1.356a3.554,3.554,0,0,0-4.908,0l-4.827,4.827a1.157,1.157,0,0,1-1.636,0l-1.355-1.356a3.556,3.556,0,0,0-4.909,0l-2.174,2.174v-8.778a1.157,1.157,0,0,0-2.314,0V219.9a3.471,3.471,0,0,0,3.471,3.471h26.613a1.157,1.157,0,1,0,0-2.314Z" transform="translate(-207.582 -178.839)" fill="#fff"/>
          <path id="Caminho_210" data-name="Caminho 210" d="M70.432,51.312V6.172A5.96,5.96,0,0,0,64.646.053H6.793A5.96,5.96,0,0,0,1.007,6.172V51.312a5.96,5.96,0,0,0,5.785,6.12H25.306v2.207H20.678a4.525,4.525,0,0,0-4.628,4.414v1.1a1.131,1.131,0,0,0,1.157,1.1H54.233a1.131,1.131,0,0,0,1.157-1.1v-1.1a4.525,4.525,0,0,0-4.628-4.414H46.133V57.432H64.647A5.96,5.96,0,0,0,70.432,51.312ZM50.762,61.846a2.262,2.262,0,0,1,2.314,2.207H18.363a2.262,2.262,0,0,1,2.314-2.207ZM27.62,59.639V57.432h16.2v2.207Zm37.026-4.414H6.793a3.711,3.711,0,0,1-3.471-3.913V48.6h64.8v2.708A3.711,3.711,0,0,1,64.646,55.225ZM68.118,6.172V46.4H3.321V6.172A3.71,3.71,0,0,1,6.793,2.26H64.647A3.71,3.71,0,0,1,68.118,6.172Z" transform="translate(-1 -0.053)" fill="#fff"/>
        </g>
      </g>
    </g>
  </g>
</svg>
