<svg xmlns="http://www.w3.org/2000/svg" width="131" height="131" viewBox="0 0 131 131">
  <g id="Grupo_218" data-name="Grupo 218" transform="translate(-154 -3215.5)">
    <g id="Grupo_128" data-name="Grupo 128" transform="translate(-107 -1108.5)">
      <circle id="Elipse_20" data-name="Elipse 20" cx="65.5" cy="65.5" r="65.5" transform="translate(261 4324)" fill="#f0f0f0"/>
    </g>
    <g id="Grupo_216" data-name="Grupo 216" transform="translate(-4123 47)">
      <path id="svgexport-22_2_" data-name="svgexport-22 (2)" d="M10.9,40.269A1.583,1.583,0,0,1,9.07,42.1c-5.851,0-6.25-.085-7.094.283-.048.019-.063,0-.031-.031l9.212-9.364c.032-.031.051-.019.032.031C10.82,33.869,10.9,34.3,10.9,40.269ZM17.61,66.411a4.756,4.756,0,0,1,4.458-6.5,1.424,1.424,0,0,1,.675,2.667c-.525.28-2.118.148-2.134,1.63,0,1.451,1.67,2.122,2.648,2.113a3.874,3.874,0,0,0,3.875-3.875v-.006a4.949,4.949,0,0,0-4.035-4.7c-.655-.131-5.517-.539-5.8-4.288-.317,1.437-1.477,5.389-3.659,5.864a11.519,11.519,0,0,1-9.584-3.121s-1.576-1.293-2.4-4.919A42.109,42.109,0,0,1,.71,46.013,2.57,2.57,0,0,1,2.838,43.28c6.875,0,7.639.2,8.573-.662.833-.784.662-1.316.662-8.724.085-.7.661-2.615,4.533-2.049a3.457,3.457,0,0,1,3.181,2.6l5.454.946c1.734.315,6.021.594,6.841,4.918a69.842,69.842,0,0,1,.662,20.24c-1.356,9.708-9.427,9.239-9.427,9.239-1.608-.02-4.6-.8-5.71-3.381Zm6.87-17.386c-.085.163-.187.509.072.594a11.384,11.384,0,0,0,3.894.469c.264-.021.259-.376.21-.564-.3-1.855-3.466-2.249-4.179-.5Z" transform="translate(4350.29 3183.708)" fill="#3db387"/>
      <path id="svgexport-22_1_" data-name="svgexport-22 (1)" d="M31.958,32H4.535A4.572,4.572,0,0,0-.041,36.568c-.008,0,0-.326,0,27.407a4.571,4.571,0,0,0,4.568,4.568H31.95a4.571,4.571,0,0,0,4.543-4.568V36.568A4.559,4.559,0,0,0,31.958,32ZM16.028,59.676a2.2,2.2,0,0,1-2.194,2.17H7.088a2.186,2.186,0,0,1-2.2-2.17V38.941A2.195,2.195,0,0,1,7.08,36.747h6.762a2.195,2.195,0,0,1,2.194,2.194V59.676ZM31.779,50.54a2.195,2.195,0,0,1-2.194,2.194H22.977a2.195,2.195,0,0,1-2.194-2.194V38.95a2.193,2.193,0,0,1,2.186-2.194h6.615a2.195,2.195,0,0,1,2.194,2.194Z" transform="translate(4308.1 3166)" fill="#3db387"/>
      <path id="svgexport-24" d="M24.261,6.328l-5.5-5.5A3.148,3.148,0,0,0,16.535-.1H3.148A3.159,3.159,0,0,0,0,3.055V30.339a3.149,3.149,0,0,0,3.148,3.148H22.037a3.149,3.149,0,0,0,3.148-3.148V8.558a3.164,3.164,0,0,0-.925-2.23ZM22.778,7.816a1.032,1.032,0,0,1,.275.485H16.79V2.038a1.032,1.032,0,0,1,.485.275Zm-.741,23.572H3.148A1.052,1.052,0,0,1,2.1,30.339V3.055A1.052,1.052,0,0,1,3.148,2.005H14.692V8.826A1.57,1.57,0,0,0,16.266,10.4h6.821V30.339A1.052,1.052,0,0,1,22.037,31.388ZM13.885,20.107,17.2,14.742a.787.787,0,0,0-.676-1.194h-.269a.79.79,0,0,0-.662.361c-2.033,3.181-2.387,3.509-3,4.886a44.836,44.836,0,0,0-3-4.886.79.79,0,0,0-.662-.361H8.658a.783.783,0,0,0-.669,1.194l3.358,5.365L7.47,25.978a.788.788,0,0,0,.662,1.213h.23a.79.79,0,0,0,.662-.361c2.44-3.8,2.971-4.1,3.568-5.411a38.794,38.794,0,0,0,3.568,5.418.781.781,0,0,0,.656.354h.236a.783.783,0,0,0,.662-1.207Z" transform="translate(4326 3242.757)" fill="#3db387"/>
    </g>
  </g>
</svg>
