<svg xmlns="http://www.w3.org/2000/svg" width="131" height="131" viewBox="0 0 131 131">
  <g id="Grupo_219" data-name="Grupo 219" transform="translate(-154 -3406.5)">
    <g id="Grupo_149" data-name="Grupo 149" transform="translate(0 -1091.5)">
      <g id="Grupo_131" data-name="Grupo 131" transform="translate(-107 174)">
        <circle id="Elipse_20" data-name="Elipse 20" cx="65.5" cy="65.5" r="65.5" transform="translate(261 4324)" fill="#f0f0f0"/>
      </g>
    </g>
    <path id="svgexport-31" d="M71.331,45.1c0,20.683-14.164,35.4-35.081,35.4a36.25,36.25,0,1,1,0-72.5,34.86,34.86,0,0,1,24.308,9.486l-9.866,9.486c-12.907-12.454-36.908-3.1-36.908,17.277A22.707,22.707,0,0,0,36.25,67.14c14.354,0,19.733-10.29,20.581-15.626H36.25V39.046H70.761a31.779,31.779,0,0,1,.57,6.051Z" transform="translate(184 3429.5)" fill="#3db387"/>
  </g>
</svg>
