<svg xmlns="http://www.w3.org/2000/svg" width="131" height="131" viewBox="0 0 131 131">
  <g id="Grupo_217" data-name="Grupo 217" transform="translate(-705 -3215.5)">
    <g id="Grupo_152" data-name="Grupo 152" transform="translate(0 -1108.5)">
      <g id="Grupo_129" data-name="Grupo 129" transform="translate(444)">
        <circle id="Elipse_20" data-name="Elipse 20" cx="65.5" cy="65.5" r="65.5" transform="translate(261 4324)" fill="#f0f0f0"/>
      </g>
    </g>
    <path id="svgexport-30" d="M45.759,81.29a2.133,2.133,0,1,0-1.843,3.848,4.814,4.814,0,0,1,0,8.963,2.133,2.133,0,1,0,1.843,3.849,9.069,9.069,0,0,0,0-16.66ZM30.933,64a3.128,3.128,0,0,0-2.239.941L16.822,76.811H3.2a3.2,3.2,0,0,0-3.2,3.2V99.229a3.2,3.2,0,0,0,3.2,3.2H16.822L28.694,114.3a3.132,3.132,0,0,0,2.239.941,3.2,3.2,0,0,0,3.228-3.205V67.205A3.2,3.2,0,0,0,30.933,64Zm-1.042,45.46-11.3-11.3H4.27V81.081H18.59l11.3-11.3ZM64.053,89.62A24.123,24.123,0,0,0,52.2,68.553a2.168,2.168,0,0,0-2.941.786,2.127,2.127,0,0,0,.8,2.917,20.4,20.4,0,0,1,0,34.727,2.13,2.13,0,0,0-.8,2.917,2.167,2.167,0,0,0,2.941.786A24.12,24.12,0,0,0,64.053,89.62Z" transform="translate(738.777 3194.336)" fill="#3db387"/>
  </g>
</svg>
