<svg xmlns="http://www.w3.org/2000/svg" width="133" height="133" viewBox="0 0 133 133">
  <g id="Grupo_175" data-name="Grupo 175" transform="translate(-754 -1407)">
    <circle id="Elipse_16" data-name="Elipse 16" cx="66.5" cy="66.5" r="66.5" transform="translate(754 1407)" fill="#5cc79f"/>
    <g id="snowflakes_1_" data-name="snowflakes (1)" transform="translate(786.13 1436.396)">
      <path id="Caminho_204" data-name="Caminho 204" d="M67.113,50.619a5.155,5.155,0,0,0-2.465-3.112,5.326,5.326,0,0,0-6.681,1.465l-10.913-6.3,8.459-2.265a1.051,1.051,0,0,0-.54-2.032L44.482,41.181l-7.79-4.5,7.8-4.5L54.973,34.99a1.017,1.017,0,0,0,.273.036,1.051,1.051,0,0,0,.267-2.066l-8.452-2.265,10.922-6.307a5.172,5.172,0,0,0,4.144,2.133h0a5.166,5.166,0,0,0,4.72-7.271c-.065-.149-.113-.3-.193-.446a4.907,4.907,0,0,0-1.034-1.248,5.33,5.33,0,0,0-6.025-.757,5.179,5.179,0,0,0-2.507,5.683l-11.077,6.4,2.268-8.461a1.051,1.051,0,1,0-2.03-.542L43.435,30.367l-7.795,4.5v-9l7.675-7.675A1.051,1.051,0,0,0,41.83,16.7L35.641,22.9V10.247A5.19,5.19,0,0,0,35.63.078c0,.017.011.032.011.048V.151a3.739,3.739,0,0,0-2.106,0V.124a.4.4,0,0,1,.011-.048,5.189,5.189,0,0,0-.011,10.165V22.892L27.344,16.7a1.051,1.051,0,0,0-1.486,1.486l7.677,7.675v9l-7.792-4.5L22.931,19.872a1.051,1.051,0,0,0-2.03.542l2.268,8.461-11.077-6.4a5.186,5.186,0,0,0-2.509-5.685,5.333,5.333,0,0,0-6.021.759A4.9,4.9,0,0,0,2.523,18.8c-.08.143-.128.3-.193.443A5.15,5.15,0,0,0,11.2,24.384l10.922,6.307-8.452,2.265a1.051,1.051,0,0,0,.269,2.066,1.027,1.027,0,0,0,.273-.036l10.484-2.808,7.792,4.5-7.79,4.5L14.2,38.37a1.052,1.052,0,0,0-.542,2.032l8.459,2.265-10.913,6.3A5.332,5.332,0,0,0,4.526,47.5a5.138,5.138,0,0,0-2.2,6.613c.065.145.116.3.2.443a5.169,5.169,0,0,0,9.566-3.673l11.077-6.395L20.9,52.941a1.055,1.055,0,0,0,.744,1.288,1.02,1.02,0,0,0,.273.038,1.047,1.047,0,0,0,1.013-.78l2.806-10.482,7.795-4.5v9l-7.677,7.675a1.051,1.051,0,1,0,1.486,1.486l6.191-6.189V63.123a5.19,5.19,0,0,0,.011,10.169c0-.017,2.091-.046,2.091-.046,0,.017,4.138-1.391,4.138-5.035a5.2,5.2,0,0,0-4.138-5.081V50.476l6.189,6.189a1.036,1.036,0,0,0,.744.307,1.05,1.05,0,0,0,.744-1.793L35.637,47.5v-9l7.795,4.5,2.806,10.482a1.051,1.051,0,1,0,2.03-.544L46.006,44.5l11.077,6.395a5.1,5.1,0,0,0,.044,2.57,5.152,5.152,0,0,0,2.465,3.114,5.127,5.127,0,0,0,6.038-.752,5.079,5.079,0,0,0,1.017-1.261,4.647,4.647,0,0,0,.2-.443A5.137,5.137,0,0,0,67.113,50.619Zm-6.5-31.979a3.087,3.087,0,0,1,4.2,1.194,3.258,3.258,0,0,1,.214.492,3.081,3.081,0,0,1-2.9,4.1h0a3.071,3.071,0,0,1-2.322-1.08,3.373,3.373,0,0,1-.38-.5,3.131,3.131,0,0,1,1.192-4.2Zm-50.861,4.2a2.671,2.671,0,0,1-.368.511,3.181,3.181,0,0,1-3.833.685,3.1,3.1,0,0,1-1.408-3.711,3,3,0,0,1,1.347-1.65,3.089,3.089,0,0,1,3.07-.036,3.131,3.131,0,0,1,1.192,4.2Zm.271,30.043a3.057,3.057,0,0,1-1.465,1.854,3.079,3.079,0,0,1-4.2-1.194,2.969,2.969,0,0,1-.216-.488A3.072,3.072,0,0,1,9.37,50.031a3.224,3.224,0,0,1,.378.5,3.081,3.081,0,0,1,.378,1.486A3.011,3.011,0,0,1,10.023,52.885ZM37.675,68.211A3.084,3.084,0,0,1,35.637,71.1h-2.1a3.068,3.068,0,0,1,0-5.783,2.879,2.879,0,0,1,2.1,0A3.085,3.085,0,0,1,37.675,68.211ZM34.588,8.253a3.022,3.022,0,0,1-1.053-.2,3.071,3.071,0,0,1,0-5.783,2.908,2.908,0,0,1,2.1,0,3.068,3.068,0,0,1,0,5.783A2.908,2.908,0,0,1,34.588,8.253Zm30.438,44.8a2.86,2.86,0,0,1-1.381,1.629,3.139,3.139,0,0,1-3.037.053,3.129,3.129,0,0,1-1.189-4.2,2.792,2.792,0,0,1,.378-.5,3.08,3.08,0,0,1,2.32-1.084,3,3,0,0,1,1.5.4,3.058,3.058,0,0,1,1.467,1.851A3.021,3.021,0,0,1,65.026,53.051Z" transform="translate(0)" fill="#fff"/>
    </g>
  </g>
</svg>
