<svg xmlns="http://www.w3.org/2000/svg" width="131" height="131" viewBox="0 0 131 131">
  <g id="Grupo_149" data-name="Grupo 149" transform="translate(-154 -4498)">
    <g id="Grupo_131" data-name="Grupo 131" transform="translate(-107 174)">
      <circle id="Elipse_20" data-name="Elipse 20" cx="65.5" cy="65.5" r="65.5" transform="translate(261 4324)" fill="#f0f0f0"/>
    </g>
    <g id="newspaper" transform="translate(184 4531)">
      <path id="Caminho_85" data-name="Caminho 85" d="M67.358,0h-51.9a3.584,3.584,0,0,0-3.58,3.581V9.016h-8.3A3.585,3.585,0,0,0,0,12.6V58.671a6.985,6.985,0,0,0,6.927,6.975h.014l.036,0H43.736a1.039,1.039,0,0,0,0-2.078h-31.8a6.955,6.955,0,0,0,2.014-4.9v-24.3a1.039,1.039,0,1,0-2.078,0v24.3A4.9,4.9,0,0,1,7,63.569H6.977a4.9,4.9,0,0,1-4.9-4.9V12.6a1.5,1.5,0,0,1,1.5-1.5h8.3v19.4a1.039,1.039,0,1,0,2.078,0V3.581a1.5,1.5,0,0,1,1.5-1.5h51.9a1.5,1.5,0,0,1,1.5,1.5v55.09a4.9,4.9,0,0,1-4.9,4.9H47.616a1.039,1.039,0,0,0,0,2.078H63.961a6.985,6.985,0,0,0,6.977-6.977V3.581A3.585,3.585,0,0,0,67.358,0Zm0,0" fill="#3db387"/>
      <path id="Caminho_86" data-name="Caminho 86" d="M149.033,180.076h14.252a2.462,2.462,0,0,0,2.459-2.459V163.365a2.462,2.462,0,0,0-2.459-2.459H149.033a2.462,2.462,0,0,0-2.459,2.459v14.252A2.462,2.462,0,0,0,149.033,180.076Zm-.38-16.711a.381.381,0,0,1,.38-.38h14.252a.381.381,0,0,1,.38.38v14.252a.381.381,0,0,1-.38.38H149.033a.381.381,0,0,1-.38-.38Zm0,0" transform="translate(-126.266 -138.612)" fill="#3db387"/>
      <path id="Caminho_87" data-name="Caminho 87" d="M305.731,162.985h19.286a1.039,1.039,0,0,0,0-2.078H305.731a1.039,1.039,0,0,0,0,2.078Zm0,0" transform="translate(-262.476 -138.612)" fill="#3db387"/>
      <path id="Caminho_88" data-name="Caminho 88" d="M305.731,224.664h19.286a1.039,1.039,0,0,0,0-2.078H305.731a1.039,1.039,0,0,0,0,2.078Zm0,0" transform="translate(-262.476 -191.746)" fill="#3db387"/>
      <path id="Caminho_89" data-name="Caminho 89" d="M305.731,286.34h19.286a1.039,1.039,0,0,0,0-2.078H305.731a1.039,1.039,0,0,0,0,2.078Zm0,0" transform="translate(-262.476 -244.877)" fill="#3db387"/>
      <path id="Caminho_90" data-name="Caminho 90" d="M147.613,348.016h41.194a1.039,1.039,0,1,0,0-2.078H147.613a1.039,1.039,0,1,0,0,2.078Zm0,0" transform="translate(-126.266 -298.007)" fill="#3db387"/>
      <path id="Caminho_91" data-name="Caminho 91" d="M147.613,409.7h41.194a1.039,1.039,0,1,0,0-2.078H147.613a1.039,1.039,0,1,0,0,2.078Zm0,0" transform="translate(-126.266 -351.141)" fill="#3db387"/>
      <path id="Caminho_92" data-name="Caminho 92" d="M146.766,49.944V38.963a.56.56,0,0,1,.321-.516,1.588,1.588,0,0,1,.778-.178,1.645,1.645,0,0,1,.931.22,2.75,2.75,0,0,1,.711.947l3.265,6.311v-6.8a.544.544,0,0,1,.321-.508,1.872,1.872,0,0,1,1.557,0,.544.544,0,0,1,.321.508v11a.565.565,0,0,1-.33.508,1.535,1.535,0,0,1-.77.186,1.321,1.321,0,0,1-1.269-.694l-3.638-6.8v6.8a.565.565,0,0,1-.33.508,1.7,1.7,0,0,1-1.548,0A.566.566,0,0,1,146.766,49.944Zm0,0" transform="translate(-126.431 -32.967)" fill="#3db387"/>
      <path id="Caminho_93" data-name="Caminho 93" d="M220.645,49.944V38.963a.576.576,0,0,1,.288-.508,1.217,1.217,0,0,1,.677-.186h6.023a.571.571,0,0,1,.516.288,1.229,1.229,0,0,1,.178.66,1.251,1.251,0,0,1-.186.694.577.577,0,0,1-.508.287h-4.788v3.384h2.572a.591.591,0,0,1,.508.262,1.04,1.04,0,0,1,.186.618,1.019,1.019,0,0,1-.178.584.584.584,0,0,1-.516.262h-2.572v3.4h4.788a.578.578,0,0,1,.508.287,1.252,1.252,0,0,1,.186.694,1.229,1.229,0,0,1-.178.66.569.569,0,0,1-.516.287h-6.023a1.217,1.217,0,0,1-.677-.186A.577.577,0,0,1,220.645,49.944Zm0,0" transform="translate(-190.074 -32.967)" fill="#3db387"/>
      <path id="Caminho_94" data-name="Caminho 94" d="M284.023,39.15a.741.741,0,0,1,.457-.618,1.877,1.877,0,0,1,.947-.262q.61,0,.727.44l2.674,9.17,1.438-5.888q.152-.61,1.082-.609.914,0,1.066.609l1.438,5.888,2.673-9.17q.119-.44.728-.44a1.878,1.878,0,0,1,.947.262.74.74,0,0,1,.457.618.648.648,0,0,1-.034.2l-3.35,10.642q-.254.745-1.438.745a2.085,2.085,0,0,1-.914-.195.823.823,0,0,1-.491-.55l-1.082-4.568-1.1,4.568a.824.824,0,0,1-.491.55,2.085,2.085,0,0,1-.914.195,2.125,2.125,0,0,1-.93-.195.878.878,0,0,1-.508-.55l-3.35-10.642A.633.633,0,0,1,284.023,39.15Zm0,0" transform="translate(-244.671 -32.967)" fill="#3db387"/>
      <path id="Caminho_95" data-name="Caminho 95" d="M393.68,48.163a1.318,1.318,0,0,1,.3-.787.836.836,0,0,1,.668-.4.867.867,0,0,1,.5.211,5.747,5.747,0,0,1,.541.465,2.484,2.484,0,0,0,.753.466,2.71,2.71,0,0,0,1.082.211,2.332,2.332,0,0,0,1.354-.372,1.247,1.247,0,0,0,.541-1.1,1.476,1.476,0,0,0-.3-.905,2.355,2.355,0,0,0-.778-.66q-.481-.262-1.057-.508t-1.159-.55a6.752,6.752,0,0,1-1.066-.685,2.737,2.737,0,0,1-.778-1.015,3.378,3.378,0,0,1-.3-1.446,3.415,3.415,0,0,1,.364-1.606,2.767,2.767,0,0,1,.973-1.082,4.551,4.551,0,0,1,1.3-.567,5.833,5.833,0,0,1,1.472-.181,7.581,7.581,0,0,1,.93.061,8.61,8.61,0,0,1,1.041.2,2.189,2.189,0,0,1,.9.434.89.89,0,0,1,.347.7,1.54,1.54,0,0,1-.237.779.72.72,0,0,1-.643.4,3.184,3.184,0,0,1-.829-.321,3.465,3.465,0,0,0-1.506-.321,2.454,2.454,0,0,0-1.413.347,1.134,1.134,0,0,0-.093,1.81,3.184,3.184,0,0,0,1.007.592q.6.228,1.3.575a11.138,11.138,0,0,1,1.3.753,3.16,3.16,0,0,1,1.007,1.176,3.813,3.813,0,0,1,.406,1.8,3.324,3.324,0,0,1-1.108,2.678,4.352,4.352,0,0,1-2.919.943,5.452,5.452,0,0,1-2.758-.66Q393.679,48.943,393.68,48.163Zm0,0" transform="translate(-339.134 -32.439)" fill="#3db387"/>
    </g>
  </g>
</svg>
