<svg xmlns="http://www.w3.org/2000/svg" width="131" height="131" viewBox="0 0 131 131">
  <g id="Grupo_150" data-name="Grupo 150" transform="translate(-154 -4672)">
    <g id="Grupo_132" data-name="Grupo 132" transform="translate(-107 348)">
      <circle id="Elipse_20" data-name="Elipse 20" cx="65.5" cy="65.5" r="65.5" transform="translate(261 4324)" fill="#f0f0f0"/>
    </g>
    <path id="lightbulb" d="M49.315,14.209a1.143,1.143,0,1,0-2.035,1.043A23.818,23.818,0,0,1,45.092,40.4a10.175,10.175,0,0,0-2.016,6.1v.146A5.653,5.653,0,0,1,37.43,52.3h-10.2V37.821a8.471,8.471,0,0,0,7.316-8.379,1.143,1.143,0,0,0-2.286,0,6.173,6.173,0,1,1-12.345,0,1.143,1.143,0,0,0-2.286,0,8.471,8.471,0,0,0,7.316,8.379V52.3h-10.2A5.653,5.653,0,0,1,9.092,46.65V46.5A10.286,10.286,0,0,0,7,40.31,23.824,23.824,0,0,1,26.04,2.286h.045A23.633,23.633,0,0,1,45.02,11.667a1.143,1.143,0,0,0,1.818-1.386,26.318,26.318,0,0,0-9.009-7.494A26.043,26.043,0,0,0,7.557,7.762,26.033,26.033,0,0,0,5.174,41.678,8.02,8.02,0,0,1,6.806,46.5v.148a7.919,7.919,0,0,0,2.842,6.078,4.831,4.831,0,0,0,.714,9.063,4.831,4.831,0,0,0,3.993,7.554H17.6a8.522,8.522,0,0,0,16.889,0h3.245a4.831,4.831,0,0,0,3.993-7.554,4.832,4.832,0,0,0,.766-9.039,7.919,7.919,0,0,0,2.87-6.1V46.5a7.879,7.879,0,0,1,1.554-4.723,26.106,26.106,0,0,0,2.4-27.572ZM26.044,74.438a6.246,6.246,0,0,1-6.131-5.094H32.174A6.247,6.247,0,0,1,26.044,74.438Zm14.4-19.856a2.547,2.547,0,1,1,0,5.094h-19.9a1.143,1.143,0,1,0,0,2.286H37.733a2.547,2.547,0,1,1,0,5.094H14.354a2.547,2.547,0,0,1,0-5.094h1.622a1.143,1.143,0,0,0,0-2.286H11.639a2.547,2.547,0,0,1,0-5.094Zm0,0" transform="translate(193.137 4698.844)" fill="#3db387"/>
  </g>
</svg>
