<svg xmlns="http://www.w3.org/2000/svg" width="60" height="60" viewBox="0 0 60 60">
  <g id="Grupo_245" data-name="Grupo 245" transform="translate(-139 -1107)">
    <g id="Grupo_156" data-name="Grupo 156" transform="translate(0 -1079)">
      <circle id="Elipse_1" data-name="Elipse 1" cx="30" cy="30" r="30" transform="translate(139 2186)" fill="#3db387"/>
    </g>
    <g id="application" transform="translate(84.484 1083.044)">
      <path id="Caminho_156" data-name="Caminho 156" d="M76.614,73.811H90.663A4.044,4.044,0,0,0,94.7,69.771V65.03h.967a.527.527,0,0,0,.524-.476l.176-1.82a8.493,8.493,0,0,0,2.166-.911l1.4,1.157a.527.527,0,0,0,.708-.033l2.088-2.088a.527.527,0,0,0,.033-.709l-1.16-1.4a8.664,8.664,0,0,0,.914-2.163l1.795-.175a.527.527,0,0,0,.476-.524V52.925a.527.527,0,0,0-.476-.524l-1.82-.176a8.5,8.5,0,0,0-.911-2.166l1.157-1.4a.527.527,0,0,0-.031-.706l-2.062-2.088a.527.527,0,0,0-.711-.036l-1.4,1.16a8.668,8.668,0,0,0-2.163-.914l-.176-1.821a.527.527,0,0,0-.524-.476H94.7V39.039A4.044,4.044,0,0,0,90.663,35H76.614a4.044,4.044,0,0,0-4.039,4.039V69.771A4.044,4.044,0,0,0,76.614,73.811ZM95.356,46.552a.527.527,0,0,0,.413.464,7.627,7.627,0,0,1,2.522,1.064.527.527,0,0,0,.622-.037l1.32-1.093,1.388,1.406-1.1,1.325a.527.527,0,0,0-.033.628,7.393,7.393,0,0,1,1.06,2.515.527.527,0,0,0,.464.413l1.718.166v2l-1.692.166a.527.527,0,0,0-.464.413,7.625,7.625,0,0,1-1.064,2.522.527.527,0,0,0,.037.622l1.1,1.322-1.41,1.41-1.322-1.1a.527.527,0,0,0-.628-.033,7.4,7.4,0,0,1-2.515,1.06.527.527,0,0,0-.413.464l-.166,1.718h-2l-.166-1.718a.527.527,0,0,0-.413-.464,7.627,7.627,0,0,1-2.522-1.064.527.527,0,0,0-.622.037l-1.322,1.1-1.41-1.41,1.1-1.322a.527.527,0,0,0,.033-.628,7.394,7.394,0,0,1-1.06-2.515.527.527,0,0,0-.464-.413l-1.718-.166v-2l1.718-.166a.527.527,0,0,0,.464-.413A7.626,7.626,0,0,1,87.864,50.3a.527.527,0,0,0-.037-.622l-1.1-1.322,1.41-1.41,1.322,1.1a.527.527,0,0,0,.628.033,7.4,7.4,0,0,1,2.515-1.06.527.527,0,0,0,.413-.464l.166-1.718h2Zm-18.742-10.5H90.663a2.989,2.989,0,0,1,2.985,2.985v1.229H92.419a.527.527,0,1,0,0,1.054h1.229v2.459h-.94a.527.527,0,0,0-.524.476l-.176,1.821a8.494,8.494,0,0,0-2.166.911l-1.4-1.157a.527.527,0,0,0-.709.033l-2.088,2.088a.527.527,0,0,0-.033.709l1.16,1.4a8.672,8.672,0,0,0-.914,2.163L84.04,52.4a.527.527,0,0,0-.476.524v2.961a.527.527,0,0,0,.476.524l1.82.176a8.5,8.5,0,0,0,.912,2.166l-1.157,1.4a.527.527,0,0,0,.033.709l2.088,2.088a.527.527,0,0,0,.709.033l1.4-1.16a8.666,8.666,0,0,0,2.163.914l.176,1.821a.527.527,0,0,0,.524.476h.94v1.4H73.629V41.322H87.941a.527.527,0,0,0,0-1.054H73.629V39.039A2.989,2.989,0,0,1,76.614,36.054ZM73.629,67.488h20.02v2.283a2.989,2.989,0,0,1-2.985,2.985H76.614a2.989,2.989,0,0,1-2.985-2.985Z" fill="#fff"/>
      <path id="Caminho_157" data-name="Caminho 157" d="M261.8,96.054h.976a.527.527,0,1,0,0-1.054H261.8a.527.527,0,1,0,0,1.054Z" transform="translate(-172.126 -54.732)" fill="#fff"/>
      <path id="Caminho_158" data-name="Caminho 158" d="M179.419,417.688a1.844,1.844,0,1,0-1.844-1.844A1.844,1.844,0,0,0,179.419,417.688Zm0-2.634a.79.79,0,1,1-.79.79A.79.79,0,0,1,179.419,415.054Z" transform="translate(-95.78 -345.721)" fill="#fff"/>
      <path id="Caminho_159" data-name="Caminho 159" d="M247.08,190.645a6.291,6.291,0,1,0,6.291-6.291A6.291,6.291,0,0,0,247.08,190.645Zm6.291-5.237a5.237,5.237,0,1,1-5.237,5.237A5.237,5.237,0,0,1,253.371,185.408Z" transform="translate(-159.182 -136.24)" fill="#fff"/>
      <path id="Caminho_160" data-name="Caminho 160" d="M287.237,236.825a.527.527,0,0,0,.736,0l3.072-3a.527.527,0,0,0-.736-.754l-2.7,2.64-1.337-1.305a.527.527,0,1,0-.736.754Z" transform="translate(-194.113 -180.543)" fill="#fff"/>
      <path id="Caminho_161" data-name="Caminho 161" d="M165.965,237h-.728a.527.527,0,1,0,0,1.054h.728a.527.527,0,1,0,0-1.054Z" transform="translate(-84.045 -184.263)" fill="#fff"/>
      <path id="Caminho_162" data-name="Caminho 162" d="M102.527,238.054H105.7a.527.527,0,1,0,0-1.054h-3.177a.527.527,0,0,0,0,1.054Z" transform="translate(-26.841 -184.263)" fill="#fff"/>
      <path id="Caminho_163" data-name="Caminho 163" d="M138.6,287h-3.362a.527.527,0,0,0,0,1.054H138.6a.527.527,0,0,0,0-1.054Z" transform="translate(-56.679 -229.873)" fill="#fff"/>
      <path id="Caminho_164" data-name="Caminho 164" d="M102.527,288.054h.542a.527.527,0,0,0,0-1.054h-.542a.527.527,0,0,0,0,1.054Z" transform="translate(-26.841 -229.873)" fill="#fff"/>
      <path id="Caminho_165" data-name="Caminho 165" d="M175,337.527a.527.527,0,0,0,.527.527h2.459a.527.527,0,0,0,0-1.054h-2.459A.527.527,0,0,0,175,337.527Z" transform="translate(-93.431 -275.482)" fill="#fff"/>
      <path id="Caminho_166" data-name="Caminho 166" d="M106.581,337h-4.055a.527.527,0,0,0,0,1.054h4.055a.527.527,0,0,0,0-1.054Z" transform="translate(-26.841 -275.482)" fill="#fff"/>
      <path id="Caminho_167" data-name="Caminho 167" d="M145.527,184.054h3.337a.527.527,0,1,0,0-1.054h-3.337a.527.527,0,0,0,0,1.054Z" transform="translate(-66.066 -135.005)" fill="#fff"/>
      <path id="Caminho_168" data-name="Caminho 168" d="M102.527,184.054h1.42a.527.527,0,0,0,0-1.054h-1.42a.527.527,0,0,0,0,1.054Z" transform="translate(-26.841 -135.005)" fill="#fff"/>
    </g>
  </g>
</svg>
