<svg xmlns="http://www.w3.org/2000/svg" width="60" height="60" viewBox="0 0 60 60">
  <g id="Grupo_246" data-name="Grupo 246" transform="translate(-139 -1198)">
    <g id="Grupo_157" data-name="Grupo 157" transform="translate(0 -1079)">
      <circle id="Elipse_4" data-name="Elipse 4" cx="30" cy="30" r="30" transform="translate(139 2277)" fill="#3db387"/>
    </g>
    <g id="computer" transform="translate(152.309 1213.246)">
      <path id="Caminho_169" data-name="Caminho 169" d="M31.378,0H8.55a.515.515,0,1,0,0,1.03H31.378A2.272,2.272,0,0,1,33.647,3.3V21.626A2.272,2.272,0,0,1,31.378,23.9H3.3A2.272,2.272,0,0,1,1.03,21.626V3.3A2.272,2.272,0,0,1,3.3,1.03h3.19a.515.515,0,1,0,0-1.03H3.3A3.3,3.3,0,0,0,0,3.3V21.626a3.3,3.3,0,0,0,3.3,3.3h8.282l-1.009,3.3H8.681a1.751,1.751,0,1,0,0,3.5H26a1.751,1.751,0,1,0,0-3.5H24.106l-1.009-3.3h8.281a3.3,3.3,0,0,0,3.3-3.3V3.3A3.3,3.3,0,0,0,31.378,0Zm-4.66,29.973a.722.722,0,0,1-.721.721H8.681a.721.721,0,0,1,0-1.442H26A.722.722,0,0,1,26.718,29.973Zm-3.689-1.751H11.649l1.009-3.3H22.02Zm0,0" fill="#fff"/>
      <path id="Caminho_170" data-name="Caminho 170" d="M69.227,54.569a.515.515,0,0,0,.515-.515V41.1a.553.553,0,0,0-.553-.553H41.11a.553.553,0,0,0-.552.553V57.889a.515.515,0,0,0,.515.515H69.227a.515.515,0,0,0,.515-.515V56.115a.515.515,0,0,0-1.03,0v1.259H41.589V41.581H68.713V54.054A.515.515,0,0,0,69.227,54.569Zm0,0" transform="translate(-37.812 -37.804)" fill="#fff"/>
      <path id="Caminho_171" data-name="Caminho 171" d="M249.344,319.746a.515.515,0,1,0-.071.657A.519.519,0,0,0,249.344,319.746Zm0,0" transform="translate(-231.578 -297.877)" fill="#fff"/>
    </g>
  </g>
</svg>
