<svg xmlns="http://www.w3.org/2000/svg" width="60" height="60" viewBox="0 0 60 60">
  <g id="Grupo_248" data-name="Grupo 248" transform="translate(-139 -1380)">
    <g id="Grupo_159" data-name="Grupo 159" transform="translate(0 -1079)">
      <circle id="Elipse_6" data-name="Elipse 6" cx="30" cy="30" r="30" transform="translate(139 2459)" fill="#3db387"/>
    </g>
    <g id="support" transform="translate(151.054 1382.411)">
      <g id="Grupo_166" data-name="Grupo 166" transform="translate(0 8.826)">
        <path id="Caminho_174" data-name="Caminho 174" d="M23.346,32.947v-.632a6.588,6.588,0,0,0,.515-.467,9.394,9.394,0,0,0,2.378-5.236,4.618,4.618,0,0,0,2.982-1.773c1-1.409,1.086-3.436.254-5.979A.687.687,0,0,0,29.2,18.5l-.378-.254A9.318,9.318,0,0,0,26.6,11.973C24.748,9.891,21.91,8.84,18.151,8.826s-6.6,1.065-8.446,3.12A9.318,9.318,0,0,0,7.479,18.22l-.378.254a.687.687,0,0,0-.275.357c-.832,2.556-.742,4.57.254,5.979A4.632,4.632,0,0,0,10.063,26.6a9.4,9.4,0,0,0,2.385,5.243,6.7,6.7,0,0,0,.515.467v.632C10.331,33.455-.177,35.922,0,42.932a.687.687,0,0,0,.687.687H35.62a.687.687,0,0,0,.687-.687C36.486,35.922,25.978,33.455,23.346,32.947ZM9.65,25.071a2.983,2.983,0,0,1-1.457-1.065l.034.007c-.687-1-.749-2.522-.137-4.529l.5-.337a.687.687,0,0,0,.3-.639,8.123,8.123,0,0,1,1.869-5.656c1.553-1.759,4.048-2.639,7.387-2.653s5.834.893,7.415,2.653a8.123,8.123,0,0,1,1.869,5.656.687.687,0,0,0,.3.639l.5.337c.612,2,.57,3.525-.137,4.529a3,3,0,0,1-1.464,1.065,4.576,4.576,0,0,0,1.12-3.436,3.216,3.216,0,0,0-1.106-1.924c-.3-6.872-5.113-7.642-7.188-7.642a8.663,8.663,0,0,0-1.313.1,8.651,8.651,0,0,0-1.313-.1c-2.062,0-6.872.756-7.188,7.642a3.216,3.216,0,0,0-1.12,1.917A4.57,4.57,0,0,0,9.65,25.071Zm15.634-5.635a14.157,14.157,0,0,1-8.212-2.062.687.687,0,0,0-.893.089c-1.374,1.477-3.883,1.821-5.092,1.9.371-4.859,3.312-5.917,5.786-5.917a6.643,6.643,0,0,1,1.175.1.686.686,0,0,0,.275,0,6.675,6.675,0,0,1,1.175-.1c2.453,0,5.408,1.086,5.752,5.986ZM11.327,25.2l.027.007a.687.687,0,0,0-.172-.46,3.875,3.875,0,0,1-1.258-2.873,1.821,1.821,0,0,1,.625-1.161c.907,0,4.123-.172,6.185-1.952a15.5,15.5,0,0,0,7.628,2.062,9.062,9.062,0,0,0,1.416-.076,1.814,1.814,0,0,1,.618,1.127,3.894,3.894,0,0,1-1.258,2.873.687.687,0,0,0-.172.46v.357l-4,2.144a1.979,1.979,0,1,0,.618,1.436q0-.093,0-.186l3.154-1.691A7.56,7.56,0,0,1,22.9,30.9a6.123,6.123,0,0,1-4.556,1.7H18a6.137,6.137,0,0,1-4.549-1.7C11.279,28.741,11.327,25.236,11.327,25.2Zm8.886,3.945a.612.612,0,1,1-.612-.612A.612.612,0,0,1,20.213,29.147ZM17.464,42.2H1.4c.543-5.161,8.934-7.319,11.559-7.875v1.23c0,1.56,1.9,2.749,4.508,2.948ZM14.33,35.558V33.187a8.308,8.308,0,0,0,3.649.77h.344a8.308,8.308,0,0,0,3.649-.77v2.371c0,.653-1.491,1.594-3.821,1.594S14.33,36.211,14.33,35.558Zm4.508,6.666V38.5c2.611-.179,4.508-1.374,4.508-2.948v-1.2c2.646.55,11,2.708,11.559,7.875Z" transform="translate(0 -8.826)" fill="#fff"/>
      </g>
    </g>
  </g>
</svg>
