<svg xmlns="http://www.w3.org/2000/svg" width="133" height="133" viewBox="0 0 133 133">
  <g id="Grupo_187" data-name="Grupo 187" transform="translate(-754 -1407)">
    <circle id="Elipse_16" data-name="Elipse 16" cx="66.5" cy="66.5" r="66.5" transform="translate(754 1407)" fill="#5cc79f"/>
    <g id="smiling-girl" transform="translate(761.325 1436)">
      <path id="Caminho_214" data-name="Caminho 214" d="M181.636,316.587a6.922,6.922,0,0,1-9.779,0,1.413,1.413,0,0,0-2,2,9.752,9.752,0,0,0,13.775,0,1.413,1.413,0,0,0-2-2Z" transform="translate(-116.729 -260.328)" fill="#fff"/>
      <path id="Caminho_215" data-name="Caminho 215" d="M91.994,70.277c-3.31-3.665-3.45-13.005-3.058-22.669a7.4,7.4,0,0,0,.5-10.29c.481-9.856.737-16.448-2.39-22.534A25.393,25.393,0,0,0,76.79,4.471,33.573,33.573,0,0,0,58.821.022,19.315,19.315,0,0,0,44.563,7.133,13.675,13.675,0,0,0,33.542,13.77c-.193.332-.38.673-.555,1.014-3.128,6.09-2.873,12.68-2.392,22.536a7.4,7.4,0,0,0,.5,10.287c.392,9.664.252,19-3.058,22.67a1.413,1.413,0,0,0,.549,2.269,29.82,29.82,0,0,0,10.59,1.911,33.677,33.677,0,0,0,8.744-1.181A34.041,34.041,0,0,0,55.9,70.039a25.283,25.283,0,0,0,8.242,0,34.041,34.041,0,0,0,7.972,3.237,33.23,33.23,0,0,0,8.7,1.183,30.1,30.1,0,0,0,10.636-1.913,1.413,1.413,0,0,0,.549-2.269ZM85.275,45.12V38.105c0-.019,0-.037,0-.056v-.215a4.592,4.592,0,0,1-.044,8.753C85.259,46.1,85.275,45.613,85.275,45.12ZM35.5,16.075c.153-.3.315-.595.484-.884a10.868,10.868,0,0,1,9.29-5.257h.02a1.414,1.414,0,0,0,1.092-.553A16.524,16.524,0,0,1,58.922,2.846,30.754,30.754,0,0,1,75.38,6.92a22.624,22.624,0,0,1,9.154,9.155c2.5,4.871,2.577,10.17,2.166,19.275a7.37,7.37,0,0,0-1.425-.429V33.485a1.413,1.413,0,1,0-2.826,0v3.209c-19.464.208-30-9.167-32.813-12.1a1.413,1.413,0,0,0-2.327.441c-2.053,4.995-5.641,7.608-11.29,8.224a1.413,1.413,0,0,0-1.26,1.4v.259a7.356,7.356,0,0,0-1.427.43C32.923,26.248,33,20.949,35.5,16.075Zm-.7,30.512a4.592,4.592,0,0,1-.044-8.753V45.12C34.76,45.613,34.775,46.1,34.8,46.587ZM31.351,70.5c2.52-4.3,2.957-11.451,2.636-21.207a7.353,7.353,0,0,0,1.161.256A25.343,25.343,0,0,0,51.7,68.968C47.61,70.728,39.872,73.059,31.351,70.5Zm28.666-2.948A22.457,22.457,0,0,1,37.586,45.12V35.9A14.947,14.947,0,0,0,49.05,27.963,41.558,41.558,0,0,0,59.016,34.6a52.242,52.242,0,0,0,23.433,4.92v5.6A22.457,22.457,0,0,1,60.017,67.552Zm12.923,3.021a33.438,33.438,0,0,1-4.609-1.6A25.342,25.342,0,0,0,84.886,49.549a7.357,7.357,0,0,0,1.16-.256c-.321,9.757.116,16.907,2.637,21.208A28.352,28.352,0,0,1,72.941,70.573Z" transform="translate(0 0)" fill="#fff"/>
      <path id="Caminho_216" data-name="Caminho 216" d="M113.234,224.725a1.413,1.413,0,1,0,2,2,2.326,2.326,0,0,1,3.285,0,1.413,1.413,0,1,0,2-2A5.154,5.154,0,0,0,113.234,224.725Z" transform="translate(-70.106 -183.792)" fill="#fff"/>
      <path id="Caminho_217" data-name="Caminho 217" d="M270.532,226.723a1.413,1.413,0,0,0,0-2,5.154,5.154,0,0,0-7.281,0,1.413,1.413,0,0,0,2,2,2.326,2.326,0,0,1,3.285,0,1.413,1.413,0,0,0,2,0Z" transform="translate(-193.625 -183.793)" fill="#fff"/>
    </g>
  </g>
</svg>
