<svg xmlns="http://www.w3.org/2000/svg" width="133" height="133" viewBox="0 0 133 133">
  <g id="Grupo_189" data-name="Grupo 189" transform="translate(-1030 -1407)">
    <g id="Grupo_63" data-name="Grupo 63">
      <circle id="Elipse_17" data-name="Elipse 17" cx="66.5" cy="66.5" r="66.5" transform="translate(1030 1407)" fill="#5cc79f"/>
    </g>
    <g id="awaken" transform="translate(1061 1404.292)">
      <g id="Grupo_188" data-name="Grupo 188" transform="translate(0 39.918)">
        <path id="Caminho_218" data-name="Caminho 218" d="M67.45,61.236c-2.09,0-3.55.932-3.55,2.266V76.619H43.774L43.8,57.841l13.6-7.814a3.5,3.5,0,0,0,1.3-4.773l-.009-.016h0a3.523,3.523,0,0,0-4.8-1.285l-12.694,7.29a7.1,7.1,0,1,0-11.379.042L17.051,43.869a3.619,3.619,0,0,0-4.766,1.653A3.475,3.475,0,0,0,13.6,50.257l.022.012,13.575,7.6-.008,18.745h-5a3.515,3.515,0,0,0-3.305-2.367H8.283a3.428,3.428,0,0,0-1.183.223V45.142c0-1.592-1.559-2.84-3.55-2.84S0,43.55,0,45.142v51.12c0,1.592,1.559,2.84,3.55,2.84s3.55-1.248,3.55-2.84v-7.81H27.184l0,6.412A4.511,4.511,0,0,0,31.914,99.1a4.975,4.975,0,0,0,3.55-1.438,4.976,4.976,0,0,0,3.55,1.438,4.511,4.511,0,0,0,4.733-4.236l.009-6.414H63.9v8.384c0,1.334,1.459,2.266,3.55,2.266S71,98.171,71,96.837V63.5C71,62.168,69.541,61.236,67.45,61.236ZM4.733,96.263c-.013.1-.41.473-1.183.473s-1.172-.376-1.183-.473V45.142c.012-.1.407-.473,1.183-.473s1.171.376,1.183.473ZM27.185,86.086H7.1V77.8h.045a1.163,1.163,0,0,1,1.138-1.183h10.6A1.163,1.163,0,0,1,20.024,77.8a1.183,1.183,0,0,0,1.183,1.183h5.98ZM35.5,42.3a4.733,4.733,0,1,1-4.733,4.733A4.733,4.733,0,0,1,35.5,42.3Zm6.53,13.827a1.184,1.184,0,0,0-.594,1.024l-.055,37.711a2.166,2.166,0,0,1-2.367,1.871,2.257,2.257,0,0,1-2.331-1.591V74.253H34.317V94.687a1.118,1.118,0,0,0-.036.177,2.166,2.166,0,0,1-2.367,1.871,2.166,2.166,0,0,1-2.367-1.871l.016-37.684a1.184,1.184,0,0,0-.6-1.033L14.778,48.2a1.122,1.122,0,0,1-.537-.679,1.089,1.089,0,0,1,.1-.834c.325-.571,1.072-1.026,1.536-.767L29.8,54.009a1.185,1.185,0,0,0,.594.16h0l10.16,0a1.181,1.181,0,0,0,.589-.157l13.932-8a1.151,1.151,0,0,1,1.569.418,1.132,1.132,0,0,1-.414,1.547l-.007,0ZM63.9,86.086H43.76l.01-7.1H63.9Zm4.733,10.442a3.47,3.47,0,0,1-2.367,0V63.811a3.47,3.47,0,0,1,2.367,0Z" transform="translate(0 -39.918)" fill="#fff"/>
      </g>
    </g>
  </g>
</svg>
