<svg xmlns="http://www.w3.org/2000/svg" width="131" height="131" viewBox="0 0 131 131">
  <g id="Grupo_128" data-name="Grupo 128" transform="translate(-261 -4324)">
    <circle id="Elipse_20" data-name="Elipse 20" cx="65.5" cy="65.5" r="65.5" transform="translate(261 4324)" fill="#f0f0f0"/>
    <g id="meditation" transform="translate(288.973 4352)">
      <g id="Grupo_89" data-name="Grupo 89" transform="translate(72.708 2.514)">
        <g id="Grupo_88" data-name="Grupo 88">
          <rect id="Retângulo_23" data-name="Retângulo 23" width="2.506" height="2.506" fill="#3db387"/>
        </g>
      </g>
      <g id="Grupo_91" data-name="Grupo 91" transform="translate(70.202 0.008)">
        <g id="Grupo_90" data-name="Grupo 90">
          <rect id="Retângulo_24" data-name="Retângulo 24" width="2.506" height="2.506" fill="#3db387"/>
        </g>
      </g>
      <g id="Grupo_93" data-name="Grupo 93" transform="translate(67.695 2.514)">
        <g id="Grupo_92" data-name="Grupo 92">
          <rect id="Retângulo_25" data-name="Retângulo 25" width="2.506" height="2.506" fill="#3db387"/>
        </g>
      </g>
      <g id="Grupo_95" data-name="Grupo 95" transform="translate(70.202 5.021)">
        <g id="Grupo_94" data-name="Grupo 94">
          <rect id="Retângulo_26" data-name="Retângulo 26" width="2.506" height="2.506" fill="#3db387"/>
        </g>
      </g>
      <g id="Grupo_97" data-name="Grupo 97" transform="translate(62.683 2.514)">
        <g id="Grupo_96" data-name="Grupo 96">
          <rect id="Retângulo_27" data-name="Retângulo 27" width="2.506" height="2.506" fill="#3db387"/>
        </g>
      </g>
      <g id="Grupo_99" data-name="Grupo 99" transform="translate(60.177 27.577)">
        <g id="Grupo_98" data-name="Grupo 98">
          <rect id="Retângulo_28" data-name="Retângulo 28" width="2.506" height="2.506" fill="#3db387"/>
        </g>
      </g>
      <g id="Grupo_101" data-name="Grupo 101" transform="translate(65.189 27.577)">
        <g id="Grupo_100" data-name="Grupo 100">
          <rect id="Retângulo_29" data-name="Retângulo 29" width="2.506" height="2.506" fill="#3db387"/>
        </g>
      </g>
      <g id="Grupo_103" data-name="Grupo 103" transform="translate(62.683 25.071)">
        <g id="Grupo_102" data-name="Grupo 102">
          <rect id="Retângulo_30" data-name="Retângulo 30" width="2.506" height="2.506" fill="#3db387"/>
        </g>
      </g>
      <g id="Grupo_105" data-name="Grupo 105" transform="translate(62.683 30.083)">
        <g id="Grupo_104" data-name="Grupo 104">
          <rect id="Retângulo_31" data-name="Retângulo 31" width="2.506" height="2.506" fill="#3db387"/>
        </g>
      </g>
      <g id="Grupo_107" data-name="Grupo 107" transform="translate(13.812 23.818)">
        <g id="Grupo_106" data-name="Grupo 106">
          <rect id="Retângulo_32" data-name="Retângulo 32" width="2.506" height="2.506" fill="#3db387"/>
        </g>
      </g>
      <g id="Grupo_109" data-name="Grupo 109" transform="translate(11.306 21.311)">
        <g id="Grupo_108" data-name="Grupo 108">
          <rect id="Retângulo_33" data-name="Retângulo 33" width="2.506" height="2.506" fill="#3db387"/>
        </g>
      </g>
      <g id="Grupo_111" data-name="Grupo 111" transform="translate(8.798 23.818)">
        <g id="Grupo_110" data-name="Grupo 110">
          <rect id="Retângulo_34" data-name="Retângulo 34" width="2.506" height="2.506" fill="#3db387"/>
        </g>
      </g>
      <g id="Grupo_113" data-name="Grupo 113" transform="translate(11.306 26.324)">
        <g id="Grupo_112" data-name="Grupo 112">
          <rect id="Retângulo_35" data-name="Retângulo 35" width="2.506" height="2.506" fill="#3db387"/>
        </g>
      </g>
      <g id="Grupo_115" data-name="Grupo 115" transform="translate(3.786 23.818)">
        <g id="Grupo_114" data-name="Grupo 114">
          <rect id="Retângulo_36" data-name="Retângulo 36" width="2.506" height="2.506" fill="#3db387"/>
        </g>
      </g>
      <g id="Grupo_117" data-name="Grupo 117" transform="translate(0.027 7.527)">
        <g id="Grupo_116" data-name="Grupo 116" transform="translate(0)">
          <rect id="Retângulo_37" data-name="Retângulo 37" width="2.506" height="2.506" fill="#3db387"/>
        </g>
      </g>
      <g id="Grupo_119" data-name="Grupo 119" transform="translate(5.039 7.527)">
        <g id="Grupo_118" data-name="Grupo 118">
          <rect id="Retângulo_38" data-name="Retângulo 38" width="2.506" height="2.506" fill="#3db387"/>
        </g>
      </g>
      <g id="Grupo_121" data-name="Grupo 121" transform="translate(2.532 5.021)">
        <g id="Grupo_120" data-name="Grupo 120">
          <rect id="Retângulo_39" data-name="Retângulo 39" width="2.506" height="2.506" fill="#3db387"/>
        </g>
      </g>
      <g id="Grupo_123" data-name="Grupo 123" transform="translate(2.532 10.033)">
        <g id="Grupo_122" data-name="Grupo 122">
          <rect id="Retângulo_40" data-name="Retângulo 40" width="2.506" height="2.506" fill="#3db387"/>
        </g>
      </g>
      <g id="Grupo_125" data-name="Grupo 125" transform="translate(17.572 0.008)">
        <g id="Grupo_124" data-name="Grupo 124">
          <rect id="Retângulo_41" data-name="Retângulo 41" width="2.506" height="2.506" fill="#3db387"/>
        </g>
      </g>
      <g id="Grupo_127" data-name="Grupo 127" transform="translate(7.547 0)">
        <g id="Grupo_126" data-name="Grupo 126" transform="translate(0 0)">
          <path id="Caminho_73" data-name="Caminho 73" d="M107.966,58.893a3.751,3.751,0,0,0-3.543-2.494h-3.031L96.9,48.547V35.1a5.013,5.013,0,0,0-5.013-5.013V13.792A13.332,13.332,0,0,0,79.028.008q-.46-.016-.921,0c-8.617,0-13.534,7.078-13.784,13.737,0,.016.009.031.009.048h-.009V30.083A5.013,5.013,0,0,0,59.31,35.1V48.547L54.823,56.4H51.791a3.751,3.751,0,0,0-1.264,7.284,4.946,4.946,0,0,0,3.064,8.182l24.347,3.32a1.312,1.312,0,0,0,.34,0l24.347-3.32a4.946,4.946,0,0,0,3.064-8.182A3.75,3.75,0,0,0,107.966,58.893ZM78.107,2.514A10.789,10.789,0,0,1,89.385,12.792q.023.5,0,1H86.879a6.273,6.273,0,0,1-6.266-6.266,1.253,1.253,0,0,0-2.139-.886,20.219,20.219,0,0,1-11.505,5.752A11.244,11.244,0,0,1,78.107,2.514ZM75.6,31.336v-5.36a9.757,9.757,0,0,0,2.506.347,9.616,9.616,0,0,0,2.506-.355v5.367a1.253,1.253,0,0,0,1.253,1.253h2.506v1.6l-6.266,2.089-6.266-2.089v-1.6h2.506A1.253,1.253,0,0,0,75.6,31.336ZM68.323,14.694a22.682,22.682,0,0,0,10.15-4.678A8.788,8.788,0,0,0,86.879,16.3h.546c-1.566,4.2-5.539,7.519-9.318,7.519C73.755,23.818,69.359,19.6,68.323,14.694Zm14.8,15.39V24.964a14.87,14.87,0,0,0,6.266-6.853V30.083H83.12ZM66.829,18.115a14.75,14.75,0,0,0,6.266,6.857v5.112H66.829ZM69.335,32.59V35.1a1.253,1.253,0,0,0,.857,1.188h0l7.519,2.506a1.245,1.245,0,0,0,.793,0l7.519-2.506a1.253,1.253,0,0,0,.856-1.189V32.59h3.407L84.647,55.146H71.567L65.928,32.59Zm1.83,25.063H85.05l5.035,5.873L78.107,65.16,66.13,63.531ZM63.18,63.123l-2.312-.315,7.851-8.724.5,1.991ZM87,56.076l.5-1.991,7.851,8.724-2.317.315ZM50.538,60.159a1.253,1.253,0,0,1,1.253-1.253h3.759a1.253,1.253,0,0,0,1.088-.627l5.013-8.772a1.252,1.252,0,0,0,.165-.627V35.1a2.506,2.506,0,0,1,1.573-2.326l2.3,9.192,2.3,9.192L58.753,61.412H51.791A1.253,1.253,0,0,1,50.538,60.159Zm27.569,12.52-24.178-3.3a2.471,2.471,0,0,1,.335-4.921,2.35,2.35,0,0,1,.333.024L63.508,65.7l14.16,1.931,6.708,4.193Zm24.178-3.3L88.258,71.294,81.7,67.2l10.992-1.5,8.91-1.216a2.474,2.474,0,1,1,.678,4.9Zm2.138-7.969H97.462L88.229,51.152l2.3-9.192,2.3-9.192A2.506,2.506,0,0,1,94.4,35.1V48.88a1.252,1.252,0,0,0,.165.627l5.013,8.772a1.253,1.253,0,0,0,1.088.627h3.759a1.253,1.253,0,0,1,0,2.506Z" transform="translate(-48.033 0)" fill="#3db387"/>
        </g>
      </g>
    </g>
  </g>
</svg>
