<svg xmlns="http://www.w3.org/2000/svg" width="131" height="131" viewBox="0 0 131 131">
  <g id="Grupo_190" data-name="Grupo 190" transform="translate(-705 -3409)">
    <g id="Grupo_130" data-name="Grupo 130" transform="translate(444 -915)">
      <circle id="Elipse_20" data-name="Elipse 20" cx="65.5" cy="65.5" r="65.5" transform="translate(261 4324)" fill="#f0f0f0"/>
    </g>
    <g id="snowflakes_1_" data-name="snowflakes (1)" transform="translate(732.13 3433.333)">
      <path id="Caminho_204" data-name="Caminho 204" d="M75.181,56.879a5.793,5.793,0,0,0-2.77-3.5A5.984,5.984,0,0,0,64.9,55.027L52.641,47.948l9.5-2.546a1.181,1.181,0,0,0-.607-2.283L49.751,46.274,41,41.22l8.761-5.058,11.781,3.155a1.142,1.142,0,0,0,.307.04,1.181,1.181,0,0,0,.3-2.321l-9.5-2.546L64.921,27.4a5.811,5.811,0,0,0,4.657,2.4h0a5.8,5.8,0,0,0,5.3-8.17c-.073-.168-.128-.338-.217-.5a5.513,5.513,0,0,0-1.162-1.4,5.989,5.989,0,0,0-6.77-.85,5.82,5.82,0,0,0-2.817,6.385L51.468,32.45l2.548-9.507a1.181,1.181,0,1,0-2.281-.609l-3.16,11.788-8.758,5.053V29.064l8.624-8.624a1.181,1.181,0,1,0-1.67-1.669l-6.954,6.957V11.514A5.832,5.832,0,0,0,39.8.087c0,.019.012.035.012.054V.17a4.2,4.2,0,0,0-2.366,0V.139a.447.447,0,0,1,.012-.054,5.831,5.831,0,0,0-.012,11.422V25.723l-6.957-6.954a1.181,1.181,0,1,0-1.669,1.669l8.626,8.624V39.173l-8.756-5.056-3.16-11.788a1.181,1.181,0,0,0-2.281.609L25.8,32.445,13.355,25.257a5.828,5.828,0,0,0-2.819-6.388,5.993,5.993,0,0,0-6.765.852A5.5,5.5,0,0,0,2.6,21.127c-.09.161-.144.333-.217.5A5.787,5.787,0,0,0,12.349,27.4l12.272,7.087-9.5,2.546a1.181,1.181,0,0,0,.3,2.321,1.155,1.155,0,0,0,.307-.04l11.781-3.155,8.756,5.058-8.754,5.053L15.728,43.114a1.182,1.182,0,0,0-.609,2.283l9.5,2.546L12.361,55.023a5.991,5.991,0,0,0-7.507-1.646,5.774,5.774,0,0,0-2.472,7.431c.073.163.13.34.22.5A5.808,5.808,0,0,0,13.35,57.178L25.8,49.993l-2.543,9.5a1.185,1.185,0,0,0,.836,1.448,1.146,1.146,0,0,0,.307.043,1.176,1.176,0,0,0,1.138-.876l3.152-11.779,8.758-5.06V53.372L28.82,62a1.181,1.181,0,0,0,1.669,1.669l6.957-6.954V70.929a5.832,5.832,0,0,0,.012,11.427c0-.019,2.35-.052,2.35-.052,0,.019,4.65-1.563,4.65-5.658a5.838,5.838,0,0,0-4.65-5.71V56.718l6.954,6.954a1.164,1.164,0,0,0,.836.345A1.18,1.18,0,0,0,48.433,62l-8.621-8.624V43.27l8.758,5.058,3.152,11.779A1.181,1.181,0,1,0,54,59.5L51.463,50,63.91,57.186a5.731,5.731,0,0,0,.05,2.888,5.789,5.789,0,0,0,2.77,3.5,5.761,5.761,0,0,0,6.784-.845,5.707,5.707,0,0,0,1.143-1.417,5.222,5.222,0,0,0,.22-.5A5.773,5.773,0,0,0,75.181,56.879Zm-7.3-35.933a3.469,3.469,0,0,1,4.72,1.341,3.66,3.66,0,0,1,.241.553,3.462,3.462,0,0,1-3.263,4.607h0a3.45,3.45,0,0,1-2.609-1.214,3.79,3.79,0,0,1-.427-.567,3.518,3.518,0,0,1,1.339-4.72Zm-57.15,4.72a3,3,0,0,1-.413.574,3.574,3.574,0,0,1-4.307.77,3.478,3.478,0,0,1-1.582-4.17,3.367,3.367,0,0,1,1.514-1.854,3.471,3.471,0,0,1,3.45-.04,3.518,3.518,0,0,1,1.339,4.72Zm.3,33.758a3.435,3.435,0,0,1-1.646,2.083,3.46,3.46,0,0,1-4.723-1.341,3.337,3.337,0,0,1-.243-.548,3.451,3.451,0,0,1,5.877-3.4,3.623,3.623,0,0,1,.425.567,3.462,3.462,0,0,1,.425,1.669A3.383,3.383,0,0,1,11.032,59.424ZM42.1,76.646a3.466,3.466,0,0,1-2.291,3.249H37.451a3.448,3.448,0,0,1,0-6.5,3.235,3.235,0,0,1,2.361,0A3.467,3.467,0,0,1,42.1,76.646ZM38.634,9.273a3.4,3.4,0,0,1-1.183-.222,3.451,3.451,0,0,1,0-6.5,3.267,3.267,0,0,1,2.361,0,3.448,3.448,0,0,1,0,6.5A3.267,3.267,0,0,1,38.634,9.273Zm34.2,50.338a3.213,3.213,0,0,1-1.551,1.83,3.527,3.527,0,0,1-3.412.059,3.516,3.516,0,0,1-1.337-4.723,3.137,3.137,0,0,1,.425-.562A3.461,3.461,0,0,1,69.568,55a3.371,3.371,0,0,1,1.686.444,3.436,3.436,0,0,1,1.648,2.08A3.4,3.4,0,0,1,72.836,59.611Z" transform="translate(0)" fill="#3db387"/>
    </g>
  </g>
</svg>
