<svg xmlns="http://www.w3.org/2000/svg" width="131" height="131" viewBox="0 0 131 131">
  <g id="Grupo_152" data-name="Grupo 152" transform="translate(-705 -4324)">
    <g id="Grupo_129" data-name="Grupo 129" transform="translate(444)">
      <circle id="Elipse_20" data-name="Elipse 20" cx="65.5" cy="65.5" r="65.5" transform="translate(261 4324)" fill="#f0f0f0"/>
    </g>
    <g id="open-book" transform="translate(734.998 4353.493)">
      <g id="Grupo_134" data-name="Grupo 134" transform="translate(0.002 -2)">
        <g id="Grupo_133" data-name="Grupo 133" transform="translate(0)">
          <path id="Caminho_74" data-name="Caminho 74" d="M290.259,202.767a1.193,1.193,0,0,0,1.6.521,102.17,102.17,0,0,1,10.545-4.692,1.193,1.193,0,0,0-.72-2.274,102.215,102.215,0,0,0-10.907,4.842A1.192,1.192,0,0,0,290.259,202.767Z" transform="translate(-249.61 -168.855)" fill="#3db387"/>
          <path id="Caminho_75" data-name="Caminho 75" d="M291.324,101.018a1.19,1.19,0,0,0,.54-.13A102.171,102.171,0,0,1,302.408,96.2a1.193,1.193,0,0,0-.72-2.274,102.217,102.217,0,0,0-10.907,4.842,1.191,1.191,0,0,0,.542,2.254Z" transform="translate(-249.61 -80.758)" fill="#3db387"/>
          <path id="Caminho_76" data-name="Caminho 76" d="M70.317,17.877a1.191,1.191,0,0,0-1.192,1.192V65.548a3.58,3.58,0,0,1-3.575,3.575h-28.6V66.381a35.121,35.121,0,0,1,10.726-2.025,61.472,61.472,0,0,1,17.5,2.323,1.192,1.192,0,0,0,1.567-1.131V13.11a1.19,1.19,0,0,0-.933-1.163s-.934-.209-2.531-.5a1.192,1.192,0,0,0-.431,2.344c.609.112,1.119.211,1.512.29V63.964a67.306,67.306,0,0,0-16.685-1.991A37.441,37.441,0,0,0,35.8,64.256a27.919,27.919,0,0,0-10.772-2.283A80.311,80.311,0,0,0,7.153,64.014V14.032a78.446,78.446,0,0,1,17.877-2.114,25.84,25.84,0,0,1,9.534,1.964v46.9A1.192,1.192,0,0,0,36.369,61.8c.118-.07,11.926-7.123,22.407-10.616a1.192,1.192,0,0,0,.815-1.131V1.192A1.193,1.193,0,0,0,57.979.076,126.778,126.778,0,0,0,38.7,9.716a1.192,1.192,0,1,0,1.263,2.021,127.38,127.38,0,0,1,17.245-8.8V49.2a133.558,133.558,0,0,0-20.26,9.509V13.11a1.193,1.193,0,0,0-.659-1.067A27.6,27.6,0,0,0,25.029,9.535a77.349,77.349,0,0,0-19.4,2.43,1.191,1.191,0,0,0-.864,1.145V65.548A1.191,1.191,0,0,0,5.961,66.74a1.174,1.174,0,0,0,.327-.047,76.557,76.557,0,0,1,18.742-2.337,25.782,25.782,0,0,1,9.534,1.965v2.8H5.961a3.58,3.58,0,0,1-3.575-3.575V19.069a1.192,1.192,0,1,0-2.383,0V65.548a5.966,5.966,0,0,0,5.959,5.959H65.55a5.966,5.966,0,0,0,5.959-5.959V19.069A1.192,1.192,0,0,0,70.317,17.877Z" transform="translate(-0.002 0)" fill="#3db387"/>
          <path id="Caminho_77" data-name="Caminho 77" d="M290.259,151.567a1.193,1.193,0,0,0,1.6.521,102.17,102.17,0,0,1,10.545-4.692,1.193,1.193,0,0,0-.72-2.274,102.219,102.219,0,0,0-10.907,4.842A1.192,1.192,0,0,0,290.259,151.567Z" transform="translate(-249.61 -124.806)" fill="#3db387"/>
          <path id="Caminho_78" data-name="Caminho 78" d="M290.259,253.967a1.193,1.193,0,0,0,1.6.521,102.17,102.17,0,0,1,10.545-4.692,1.193,1.193,0,0,0-.72-2.274,102.223,102.223,0,0,0-10.907,4.842A1.192,1.192,0,0,0,290.259,253.967Z" transform="translate(-249.61 -212.905)" fill="#3db387"/>
          <path id="Caminho_79" data-name="Caminho 79" d="M102.29,154.3c-7.359-1.727-15.722.473-16.073.567a1.192,1.192,0,0,0,.308,2.343,1.212,1.212,0,0,0,.31-.041c.08-.023,8.132-2.14,14.913-.549a1.192,1.192,0,1,0,.543-2.32Z" transform="translate(-73.416 -132.186)" fill="#3db387"/>
          <path id="Caminho_80" data-name="Caminho 80" d="M102.29,205.507c-7.359-1.726-15.722.473-16.073.567a1.192,1.192,0,0,0,.308,2.343,1.212,1.212,0,0,0,.31-.041c.08-.023,8.132-2.14,14.913-.549a1.192,1.192,0,1,0,.543-2.32Z" transform="translate(-73.416 -176.239)" fill="#3db387"/>
          <path id="Caminho_81" data-name="Caminho 81" d="M290.259,305.167a1.193,1.193,0,0,0,1.6.521A102.179,102.179,0,0,1,302.408,301a1.193,1.193,0,0,0-.72-2.274,102.223,102.223,0,0,0-10.907,4.842A1.192,1.192,0,0,0,290.259,305.167Z" transform="translate(-249.61 -256.954)" fill="#3db387"/>
          <path id="Caminho_82" data-name="Caminho 82" d="M102.29,256.706c-7.359-1.726-15.722.472-16.073.567a1.193,1.193,0,0,0,.308,2.344,1.209,1.209,0,0,0,.31-.042c.08-.023,8.132-2.14,14.913-.549a1.192,1.192,0,1,0,.543-2.32Z" transform="translate(-73.416 -220.287)" fill="#3db387"/>
          <path id="Caminho_83" data-name="Caminho 83" d="M102.29,359.1c-7.359-1.727-15.722.473-16.073.567a1.193,1.193,0,0,0,.308,2.344,1.207,1.207,0,0,0,.31-.042c.08-.023,8.132-2.14,14.913-.549a1.192,1.192,0,1,0,.543-2.32Z" transform="translate(-73.416 -308.384)" fill="#3db387"/>
          <path id="Caminho_84" data-name="Caminho 84" d="M102.29,307.9c-7.359-1.727-15.722.472-16.073.567a1.193,1.193,0,0,0,.308,2.344,1.207,1.207,0,0,0,.31-.042c.08-.023,8.132-2.14,14.913-.549a1.192,1.192,0,1,0,.543-2.32Z" transform="translate(-73.416 -264.333)" fill="#3db387"/>
        </g>
      </g>
    </g>
  </g>
</svg>
