<svg xmlns="http://www.w3.org/2000/svg" width="131" height="131" viewBox="0 0 131 131">
  <g id="Grupo_264" data-name="Grupo 264" transform="translate(-154 -3409)">
    <g id="Grupo_131" data-name="Grupo 131" transform="translate(-107 -915)">
      <circle id="Elipse_20" data-name="Elipse 20" cx="65.5" cy="65.5" r="65.5" transform="translate(261 4324)" fill="#f0f0f0"/>
    </g>
    <g id="coffee-cup" transform="translate(184.807 3433.808)">
      <g id="Grupo_251" data-name="Grupo 251" transform="translate(0 25.473)">
        <g id="Grupo_250" data-name="Grupo 250">
          <path id="Caminho_224" data-name="Caminho 224" d="M72.932,179.861H61.019v-3.075a1.453,1.453,0,0,0-1.453-1.453H28.185a1.453,1.453,0,1,0,0,2.906H58.113v11.138A27.681,27.681,0,0,1,44.454,213.2H16.565A27.681,27.681,0,0,1,2.906,189.377V178.239H12.64a1.453,1.453,0,1,0,0-2.906H1.453A1.453,1.453,0,0,0,0,176.786v12.591A30.459,30.459,0,0,0,11.457,213.2h-10A1.453,1.453,0,0,0,0,214.656a9.6,9.6,0,0,0,9.589,9.589H54.917a9.6,9.6,0,0,0,9.589-9.589,1.453,1.453,0,0,0-1.453-1.453H49.562a30.685,30.685,0,0,0,6.727-7.506h4.1a14.011,14.011,0,0,0,14-14V181.314A1.453,1.453,0,0,0,72.932,179.861ZM61.441,216.109a6.7,6.7,0,0,1-6.524,5.23H9.589a6.7,6.7,0,0,1-6.524-5.23H61.441Zm-.422-26.732v-.8h4.649V191.7a5.285,5.285,0,0,1-5.279,5.279h-.33A30.583,30.583,0,0,0,61.019,189.377ZM71.48,191.7a11.1,11.1,0,0,1-11.09,11.09H57.917a30.333,30.333,0,0,0,1.24-2.906H60.39a8.193,8.193,0,0,0,8.184-8.184v-4.576a1.453,1.453,0,0,0-1.453-1.453h-6.1v-2.906H71.48Z" transform="translate(0 -175.333)" fill="#3db387"/>
        </g>
      </g>
      <g id="Grupo_253" data-name="Grupo 253" transform="translate(27.398 0)">
        <g id="Grupo_252" data-name="Grupo 252">
          <path id="Caminho_225" data-name="Caminho 225" d="M193.084,8.04l-.756-.949a3.787,3.787,0,0,1,0-4.735A1.453,1.453,0,1,0,190.048.549a6.68,6.68,0,0,0,.007,8.352l.756.949a4.949,4.949,0,0,1,.005,6.188l-.775.976a1.453,1.453,0,1,0,2.276,1.806l.775-.976A7.842,7.842,0,0,0,193.084,8.04Z" transform="translate(-188.585 0)" fill="#3db387"/>
        </g>
      </g>
      <g id="Grupo_255" data-name="Grupo 255" transform="translate(35.451 3.266)">
        <g id="Grupo_254" data-name="Grupo 254">
          <path id="Caminho_226" data-name="Caminho 226" d="M248.513,30.524l-.756-.949a3.787,3.787,0,0,1,0-4.735,1.453,1.453,0,0,0-2.276-1.806,6.68,6.68,0,0,0,.007,8.352l.756.949a4.95,4.95,0,0,1,.005,6.188l-.775.976a1.453,1.453,0,1,0,2.276,1.806l.774-.976A7.842,7.842,0,0,0,248.513,30.524Z" transform="translate(-244.014 -22.484)" fill="#3db387"/>
        </g>
      </g>
      <g id="Grupo_257" data-name="Grupo 257" transform="translate(19.345 3.266)">
        <g id="Grupo_256" data-name="Grupo 256">
          <path id="Caminho_227" data-name="Caminho 227" d="M137.655,30.525l-.756-.949a3.787,3.787,0,0,1,0-4.735,1.453,1.453,0,1,0-2.276-1.806,6.68,6.68,0,0,0,.007,8.352l.756.949a4.95,4.95,0,0,1,.005,6.188l-.775.976a1.453,1.453,0,1,0,2.276,1.807l.775-.976A7.842,7.842,0,0,0,137.655,30.525Z" transform="translate(-133.156 -22.485)" fill="#3db387"/>
        </g>
      </g>
      <g id="Grupo_259" data-name="Grupo 259" transform="translate(19.353 25.472)">
        <g id="Grupo_258" data-name="Grupo 258">
          <path id="Caminho_228" data-name="Caminho 228" d="M135.69,175.756a1.454,1.454,0,1,0,.426,1.027A1.464,1.464,0,0,0,135.69,175.756Z" transform="translate(-133.21 -175.33)" fill="#3db387"/>
        </g>
      </g>
      <g id="Grupo_261" data-name="Grupo 261" transform="translate(44.718 38.064)">
        <g id="Grupo_260" data-name="Grupo 260">
          <path id="Caminho_229" data-name="Caminho 229" d="M315.67,262a1.453,1.453,0,0,0-1.453,1.453,20.816,20.816,0,0,1-6,14.54,1.453,1.453,0,1,0,2.064,2.045,23.743,23.743,0,0,0,6.843-16.586A1.453,1.453,0,0,0,315.67,262Z" transform="translate(-307.795 -262)" fill="#3db387"/>
        </g>
      </g>
      <g id="Grupo_263" data-name="Grupo 263" transform="translate(39.945 57.261)">
        <g id="Grupo_262" data-name="Grupo 262">
          <path id="Caminho_230" data-name="Caminho 230" d="M277.7,394.876a1.453,1.453,0,0,0-1.979-.552l-.033.019a1.453,1.453,0,1,0,1.428,2.531l.033-.019A1.453,1.453,0,0,0,277.7,394.876Z" transform="translate(-274.945 -394.136)" fill="#3db387"/>
        </g>
      </g>
    </g>
  </g>
</svg>
